<svg width="20" height="20" viewBox="0 0 20 20" fill="none" xmlns="http://www.w3.org/2000/svg">
<path fill-rule="evenodd" clip-rule="evenodd" d="M10.0002 19.1685C15.0628 19.1685 19.1668 15.0645 19.1668 10.0019C19.1668 4.9405 15.0629 0.835205 10.0002 0.835205C4.93743 0.835205 0.833496 4.9405 0.833496 10.0019C0.833496 15.0645 4.93754 19.1685 10.0002 19.1685ZM17.9168 10.0019C17.9168 14.3741 14.3724 17.9185 10.0002 17.9185C5.6279 17.9185 2.0835 14.3741 2.0835 10.0019C2.0835 5.63074 5.6279 2.0852 10.0002 2.0852C14.3724 2.0852 17.9168 5.63074 17.9168 10.0019ZM12.4592 5.77491C11.7888 5.38709 10.8837 5.06322 9.97638 5.03337C9.05703 5.00313 8.06923 5.27902 7.39814 6.17545C7.02781 6.67012 6.76255 7.48804 7.1116 8.35478C7.45912 9.21771 8.34774 9.9604 9.91525 10.4747C10.9382 10.8104 11.5557 11.2499 11.8434 11.678C12.0984 12.0576 12.1399 12.4917 11.8437 13.0367C11.6291 13.4313 11.0242 13.7925 10.1377 13.8293C9.2822 13.8648 8.29697 13.582 7.49962 12.8692C7.24227 12.6392 6.84716 12.6613 6.61712 12.9187C6.38708 13.176 6.40922 13.5711 6.66657 13.8012C7.72441 14.7468 9.03402 15.1262 10.1895 15.0782C11.3141 15.0315 12.4364 14.5635 12.9419 13.6337C13.4367 12.7235 13.4223 11.7866 12.8809 10.9809C12.3722 10.2238 11.4529 9.6637 10.305 9.28705C8.91088 8.82961 8.4239 8.26721 8.27111 7.88782C8.11985 7.51224 8.22957 7.15061 8.39879 6.92457C8.75362 6.4506 9.28804 6.2614 9.93528 6.2827C10.5946 6.30438 11.3004 6.54867 11.8334 6.85694C12.1322 7.02977 12.5145 6.92766 12.6873 6.62886C12.8602 6.33007 12.758 5.94774 12.4592 5.77491Z" fill="#FA9600"/>
</svg>
