<svg width="24" height="24" viewBox="0 0 24 24" fill="none" xmlns="http://www.w3.org/2000/svg">
<path d="M17 2C14.2953 2 12.25 5.09716 12.25 8.80708C12.25 11.25 13.0157 13.3319 14.381 14.7158C14.6013 14.9392 14.7455 15.3557 14.75 15.7439L14.8974 20.4L14.897 21.7342L19.2484 21.7536L19.25 20.3941L19.4466 15.7839L19.444 15.5755C19.4762 15.1821 19.5243 14.9978 19.6988 14.8056L19.7704 14.7327C21.1003 13.4681 21.75 11.4049 21.75 8.80708C21.75 5.09711 19.7047 2 17 2Z" fill="#EE4D2D"/>
<path d="M10.4087 2.71255L10.8402 11.3416C10.8909 12.3573 10.5271 13.3467 9.83777 14.086L9.68511 14.2405L9.49775 14.4195C9.12796 14.7727 8.89093 15.2399 8.82247 15.7429L8.80477 15.9331L8.51336 21.7108L4.44062 21.7398L4.1992 15.9646C4.17722 15.4388 3.97182 14.9395 3.62212 14.5517L3.48429 14.4117L3.3108 14.2502C2.55498 13.5466 2.12518 12.5649 2.11615 11.5387L2.12069 11.3182L2.55097 2.71255L4.04935 2.78212L3.794 9.48776C3.78893 9.606 3.86685 9.70857 3.97608 9.73919L4.03307 9.74824L5.49999 9.74847C5.60588 9.74847 5.69769 9.68198 5.73152 9.61304L5.74451 9.5719L5.749 9.48702L5.74999 2.75H7.24999V9.49847C7.24999 9.61682 7.33222 9.71596 7.44267 9.74187L7.49999 9.74847H8.9423C9.06065 9.74847 9.15979 9.66624 9.1857 9.55579L9.1923 9.49847L8.9105 2.78543L10.4087 2.71255Z" fill="#EE4D2D"/>
</svg>
