<svg width="24" height="24" viewBox="0 0 24 24" fill="none" xmlns="http://www.w3.org/2000/svg">
<path d="M16 11.5H8V10H16V11.5Z" fill="black" fill-opacity="0.65"/>
<path d="M16 15.5H8V14H16V15.5Z" fill="black" fill-opacity="0.65"/>
<path fill-rule="evenodd" clip-rule="evenodd" d="M7.75 2.75C7.75 2.33579 8.08579 2 8.5 2H15.5C15.9142 2 16.25 2.33579 16.25 2.75V3.75H18C19.1046 3.75 20 4.64543 20 5.75V19.75C20 20.8546 19.1046 21.75 18 21.75H6C4.89543 21.75 4 20.8546 4 19.75V5.75C4 4.64543 4.89543 3.75 6 3.75H7.75V2.75ZM16.25 5.75V5.25H18C18.2761 5.25 18.5 5.47386 18.5 5.75V19.75C18.5 20.0261 18.2761 20.25 18 20.25H6C5.72386 20.25 5.5 20.0261 5.5 19.75V5.75C5.5 5.47386 5.72386 5.25 6 5.25H7.75V5.75C7.75 6.16421 8.08579 6.5 8.5 6.5H15.5C15.9142 6.5 16.25 6.16421 16.25 5.75ZM9.25 3.5V5H14.75V3.5H9.25Z" fill="black" fill-opacity="0.65"/>
</svg>
