<svg width="24" height="24" viewBox="0 0 24 24" fill="none" xmlns="http://www.w3.org/2000/svg">
<path fill-rule="evenodd" clip-rule="evenodd" d="M12.7348 1.44479C12.3114 1.08271 11.6885 1.08271 11.2651 1.44479C9.55029 2.91109 6.65858 4.92943 4.10057 5.66828C3.72536 5.77665 3.44995 6.12008 3.44995 6.53166V6.53796V6.54442V6.55104V6.55783V6.56478V6.57189V6.57917V6.5866V6.59419V6.60194V6.60985V6.61791V6.62613V6.63451V6.64305V6.65174V6.66058V6.66957V6.67872V6.68802V6.69748V6.70708V6.71683V6.72674V6.73679V6.74699V6.75734V6.76783V6.77847V6.78926V6.80019V6.81127V6.82249V6.83385V6.84535V6.857V6.86879V6.88072V6.89279V6.90499V6.91734V6.92982V6.94244V6.9552V6.96809V6.98112V6.99428V7.00757V7.021V7.03457V7.04826V7.06208V7.07604V7.09012V7.10434V7.11868V7.13315V7.14775V7.16248V7.17733V7.1923V7.2074V7.22263V7.23798V7.25345V7.26904V7.28476V7.30059V7.31655V7.33262V7.34882V7.36513V7.38156V7.3981V7.41477V7.43154V7.44844V7.46544V7.48256V7.4998V7.51714V7.5346V7.55217V7.56985V7.58764V7.60553V7.62354V7.64165V7.65987V7.6782V7.69663V7.71517V7.73381V7.75256V7.77141V7.79036V7.80941V7.82856V7.84782V7.86717V7.88663V7.90618V7.92583V7.94558V7.96542V7.98536V8.0054V8.02553V8.04575V8.06607V8.08647V8.10698V8.12757V8.14825V8.16903V8.18989V8.21084V8.23188V8.25301V8.27422V8.29552V8.31691V8.33838V8.35993V8.38157V8.40329V8.42509V8.44698V8.46894V8.49099V8.51311V8.53532V8.5576V8.57996V8.60239V8.62491V8.6475V8.67016V8.6929V8.71571V8.73859V8.76155V8.78458V8.80768V8.83085V8.85409V8.8774V8.90077V8.92422V8.94773V8.97131V8.99496V9.01867V9.04244V9.06628V9.09018V9.11414V9.13817V9.16226V9.18641V9.21061V9.23488V9.2592V9.28359V9.30803V9.33253V9.35708V9.38169V9.40635V9.43107V9.45584V9.48067V9.50554V9.53047V9.55545V9.58048V9.60555V9.63068V9.65585V9.68108V9.70635V9.73166V9.75702V9.78243V9.80788V9.83337V9.85891V9.88449V9.91011V9.93577V9.96147V9.98721V10.013V10.0388V10.0647V10.0906V10.1165V10.1425V10.1685V10.1945V10.2206V10.2467V10.2728V10.299V10.3252V10.3514V10.3776V10.4039V10.4303V10.4566V10.483V10.5094V10.5358V10.5622V10.5887V10.6152V10.6417V10.6683V10.6948V10.7214V10.748V10.7747V10.8013V10.828V10.8547V10.8814V10.9081V10.9348V10.9616V10.9883V11.0151V11.0419V11.0687V11.0955V11.1223V11.1492V11.176V11.2029V11.2298V11.2566V11.2835V11.3104V11.3373V11.3642V11.3911V11.418V11.4449V11.4719V11.4988V11.5257V11.5526V11.5796V11.6065V11.6334V11.6603V11.6872V11.7142V11.7411V11.768V11.7949V11.8218V11.8487V11.8756V11.9024V11.9293V11.9562V11.983V12.0099V12.0367V12.0635V12.0903V12.1171V12.1439V12.1707V12.1974V12.2242V12.2509V12.2776V12.3043V12.331V12.3576V12.3842V12.4109V12.4375V12.464V12.4906V12.5171V12.5436V12.5701V12.5965V12.623V12.6494V12.6758V12.7021V12.7284V12.7547V12.781V12.8072V12.8334V12.8596V12.8858V12.9119V12.938V12.964V12.99V13.016V13.0419V13.0678V13.0937V13.1195V13.1453V13.1711V13.1968V13.2225V13.2481V13.2737V13.2992V13.3248V13.3502V13.3756V13.401V13.4263V13.4516V13.4769V13.502V13.5272V13.5523V13.5773V13.6023V13.6273V13.6522V13.677V13.7018V13.7265V13.7512V13.7758V13.8004V13.8249V13.8494V13.8738V13.8981V13.9224V13.9466V13.9708V13.9949V14.0189V14.0429V14.0668V14.0907V14.1145V14.1382V14.1619V14.1855V14.209V14.2325V14.2559V14.2792V14.3025V14.3257V14.3488V14.3718V14.3948V14.4177V14.4406V14.4633V14.486V14.5086V14.5312V14.5536V14.576V14.5983V14.6205V14.6427V14.6647V14.6867V14.7086V14.7305V14.7522V14.7739V14.7955V14.817V14.8384V14.8597V14.8809V14.9021V14.9232V14.9441V14.965V14.9858V15.0065V15.0272V15.0477V15.0681V15.0885V15.1087V15.1289V15.1489V15.1689V15.1888V15.2086V15.2282V15.2478V15.2673V15.2867V15.306V15.3252V15.3442V15.3632V15.3821V15.4009V15.4196V15.4381V15.4566V15.475V15.4932V15.5114V15.5294V15.5473V15.5651V15.5829V15.6005V15.618V15.6353V15.6526V15.6698V15.6868V15.7037V15.7205V15.7372V15.7538V15.7703V15.7866V15.8029V15.819V15.835V15.8508V15.8666V15.8822V15.8977V15.9131V15.9284V15.9435V15.9585V15.9734V15.9882V16.0028V16.0173V16.0317V16.046V16.0601V16.0741V16.088V16.1017V16.1153V16.1288V16.1421V16.1553V16.1684V16.1813V16.1941V16.2068V16.2193V16.2317V16.2439V16.256V16.268V16.2798V16.2915V16.3031V16.3145V16.3257V16.3369V16.3478V16.3587V16.3694V16.3799V16.3903V16.4005V16.4106V16.4206V16.4304V16.44V16.4495V16.4589V16.4681V16.4771V16.486V16.4947V16.5033V16.5117V16.52V16.5281V16.5361V16.5439V16.5515V16.559V16.5663V16.5735V16.5805V16.5873V16.594V16.6005V16.6069V16.613V16.6191V16.6249V16.6306V16.6361V16.6415V16.6467V16.6517V16.6565C3.44995 16.8978 3.54362 17.0998 3.60606 17.2163C3.67818 17.3508 3.77137 17.4835 3.8692 17.6078C4.06596 17.8579 4.33313 18.1392 4.63804 18.431C5.25147 19.018 6.07682 19.7037 6.95329 20.3557C7.82964 21.0076 8.7755 21.6396 9.63239 22.1126C10.0605 22.3489 10.4786 22.5523 10.8631 22.6985C11.2346 22.8397 11.6318 22.95 12 22.95C12.3681 22.95 12.7653 22.8397 13.1368 22.6985C13.5213 22.5523 13.9394 22.3489 14.3675 22.1126C15.2244 21.6396 16.1703 21.0076 17.0466 20.3557C17.9231 19.7037 18.7484 19.018 19.3619 18.431C19.6668 18.1392 19.9339 17.8579 20.1307 17.6078C20.2285 17.4835 20.3217 17.3508 20.3938 17.2163C20.4563 17.0998 20.55 16.8978 20.55 16.6565V6.53306C20.55 6.12985 20.2827 5.779 19.8993 5.66828C17.3413 4.92943 14.4496 2.91109 12.7348 1.44479ZM4.94995 6.97469C7.56371 6.10583 10.2953 4.20752 12 2.78734C13.7046 4.20752 16.4362 6.10583 19.05 6.97469V16.5444C19.0296 16.5765 18.998 16.6216 18.9518 16.6803C18.8166 16.8521 18.6055 17.0786 18.3248 17.3472C17.767 17.881 16.9918 18.5269 16.1513 19.1522C15.3106 19.7776 14.423 20.3686 13.6427 20.7993C13.2521 21.0149 12.9007 21.1835 12.6038 21.2964C12.2939 21.4142 12.0978 21.45 12 21.45C11.9021 21.45 11.706 21.4142 11.3961 21.2964C11.0992 21.1835 10.7478 21.0149 10.3572 20.7993C9.57689 20.3686 8.68925 19.7776 7.8486 19.1522C7.00807 18.5269 6.23293 17.881 5.67511 17.3472C5.3944 17.0786 5.18326 16.8521 5.04811 16.6803C5.00187 16.6216 4.97035 16.5765 4.94995 16.5444V16.5439V16.5361V16.5281V16.52V16.5117V16.5033V16.4947V16.486V16.4771V16.4681V16.4589V16.4495V16.44V16.4304V16.4206V16.4106V16.4005V16.3903V16.3799V16.3694V16.3587V16.3478V16.3369V16.3257V16.3145V16.3031V16.2915V16.2798V16.268V16.256V16.2439V16.2317V16.2193V16.2068V16.1941V16.1813V16.1684V16.1553V16.1421V16.1288V16.1153V16.1017V16.088V16.0741V16.0601V16.046V16.0317V16.0173V16.0028V15.9882V15.9734V15.9585V15.9435V15.9284V15.9131V15.8977V15.8822V15.8666V15.8508V15.835V15.819V15.8029V15.7866V15.7703V15.7538V15.7372V15.7205V15.7037V15.6868V15.6698V15.6526V15.6353V15.618V15.6005V15.5829V15.5651V15.5473V15.5294V15.5114V15.4932V15.475V15.4566V15.4381V15.4196V15.4009V15.3821V15.3632V15.3442V15.3252V15.306V15.2867V15.2673V15.2478V15.2282V15.2086V15.1888V15.1689V15.1489V15.1289V15.1087V15.0885V15.0681V15.0477V15.0272V15.0065V14.9858V14.965V14.9441V14.9232V14.9021V14.8809V14.8597V14.8384V14.817V14.7955V14.7739V14.7522V14.7305V14.7086V14.6867V14.6647V14.6427V14.6205V14.5983V14.576V14.5536V14.5312V14.5086V14.486V14.4633V14.4406V14.4177V14.3948V14.3718V14.3488V14.3257V14.3025V14.2792V14.2559V14.2325V14.209V14.1855V14.1619V14.1382V14.1145V14.0907V14.0668V14.0429V14.0189V13.9949V13.9708V13.9466V13.9224V13.8981V13.8738V13.8494V13.8249V13.8004V13.7758V13.7512V13.7265V13.7018V13.677V13.6522V13.6273V13.6023V13.5773V13.5523V13.5272V13.502V13.4769V13.4516V13.4263V13.401V13.3756V13.3502V13.3248V13.2992V13.2737V13.2481V13.2225V13.1968V13.1711V13.1453V13.1195V13.0937V13.0678V13.0419V13.016V12.99V12.964V12.938V12.9119V12.8858V12.8596V12.8334V12.8072V12.781V12.7547V12.7284V12.7021V12.6758V12.6494V12.623V12.5965V12.5701V12.5436V12.5171V12.4906V12.464V12.4375V12.4109V12.3842V12.3576V12.331V12.3043V12.2776V12.2509V12.2242V12.1974V12.1707V12.1439V12.1171V12.0903V12.0635V12.0367V12.0099V11.983V11.9562V11.9293V11.9024V11.8756V11.8487V11.8218V11.7949V11.768V11.7411V11.7142V11.6872V11.6603V11.6334V11.6065V11.5796V11.5526V11.5257V11.4988V11.4719V11.4449V11.418V11.3911V11.3642V11.3373V11.3104V11.2835V11.2566V11.2298V11.2029V11.176V11.1492V11.1223V11.0955V11.0687V11.0419V11.0151V10.9883V10.9616V10.9348V10.9081V10.8814V10.8547V10.828V10.8013V10.7747V10.748V10.7214V10.6948V10.6683V10.6417V10.6152V10.5887V10.5622V10.5358V10.5094V10.483V10.4566V10.4303V10.4039V10.3776V10.3514V10.3252V10.299V10.2728V10.2467V10.2206V10.1945V10.1685V10.1425V10.1165V10.0906V10.0647V10.0388V10.013V9.98721V9.96147V9.93577V9.91011V9.88449V9.85891V9.83337V9.80788V9.78243V9.75702V9.73166V9.70635V9.68108V9.65585V9.63068V9.60555V9.58048V9.55545V9.53047V9.50554V9.48067V9.45584V9.43107V9.40635V9.38169V9.35708V9.33253V9.30803V9.28359V9.2592V9.23488V9.21061V9.18641V9.16226V9.13817V9.11414V9.09018V9.06628V9.04244V9.01867V8.99496V8.97131V8.94773V8.92422V8.90077V8.8774V8.85409V8.83085V8.80768V8.78458V8.76155V8.73859V8.71571V8.6929V8.67016V8.6475V8.62491V8.60239V8.57996V8.5576V8.53532V8.51311V8.49099V8.46894V8.44698V8.42509V8.40329V8.38157V8.35993V8.33838V8.31691V8.29552V8.27422V8.25301V8.23188V8.21084V8.18989V8.16903V8.14825V8.12757V8.10698V8.08647V8.06607V8.04575V8.02553V8.0054V7.98536V7.96542V7.94558V7.92583V7.90618V7.88663V7.86717V7.84782V7.82856V7.80941V7.79036V7.77141V7.75256V7.73381V7.71517V7.69663V7.6782V7.65987V7.64165V7.62354V7.60553V7.58764V7.56985V7.55217V7.5346V7.51714V7.4998V7.48256V7.46544V7.44844V7.43154V7.41477V7.3981V7.38156V7.36513V7.34882V7.33262V7.31655V7.30059V7.28476V7.26904V7.25345V7.23798V7.22263V7.2074V7.1923V7.17733V7.16248V7.14775V7.13315V7.11868V7.10434V7.09012V7.07604V7.06208V7.04826V7.03457V7.021V7.00757V6.99428V6.98112V6.97469ZM19.0793 16.4919C19.0795 16.4919 19.0783 16.4949 19.0752 16.5012C19.0775 16.4951 19.0791 16.492 19.0793 16.4919ZM4.92059 16.4919C4.9208 16.492 4.92241 16.4952 4.92477 16.5012C4.92156 16.4949 4.92038 16.4919 4.92059 16.4919ZM12.4734 15.5785L17.1878 10.0784L15.9296 8.99999L11.4723 14.2001L8.36737 11.7852L7.34999 13.0933L10.7667 15.7507C11.2904 16.158 12.0417 16.0822 12.4734 15.5785Z" fill="#EE4D2D"/>
</svg>
