<svg width="24" height="24" viewBox="0 0 24 24" fill="none" xmlns="http://www.w3.org/2000/svg">
<path fill-rule="evenodd" clip-rule="evenodd" d="M19 8.38889C19 11.6623 14.4957 17.1555 12.7135 19.2008C12.3318 19.6389 11.6682 19.6389 11.2865 19.2008C9.50427 17.1555 5 11.6623 5 8.38889C5 4.30812 8.13401 1 12 1C15.866 1 19 4.30812 19 8.38889ZM14 8C14 9.10457 13.1046 10 12 10C10.8954 10 10 9.10457 10 8C10 6.89543 10.8954 6 12 6C13.1046 6 14 6.89543 14 8Z" fill="#EE4D2D"/>
<path fill-rule="evenodd" clip-rule="evenodd" d="M17.8203 18.4231C17.1203 18.1509 16.2632 17.9221 15.2916 17.7604L16.3515 16.4355C19.1233 17.0321 21 18.1808 21 19.5C21 21.433 16.9706 23 12 23C7.02944 23 3 21.433 3 19.5C3 18.1808 4.87669 17.0321 7.64846 16.4355L8.70835 17.7604C7.7368 17.9221 6.87974 18.1509 6.17971 18.4231C5.46726 18.7002 4.99302 18.9931 4.72251 19.2418C4.58038 19.3725 4.5263 19.459 4.50692 19.5C4.5263 19.541 4.58038 19.6275 4.72251 19.7581C4.99302 20.0068 5.46726 20.2998 6.17971 20.5768C7.59508 21.1273 9.65235 21.5 12 21.5C14.3476 21.5 16.4049 21.1273 17.8203 20.5768C18.5327 20.2998 19.007 20.0068 19.2775 19.7581C19.4196 19.6275 19.4737 19.541 19.4931 19.5C19.4737 19.459 19.4196 19.3725 19.2775 19.2418C19.007 18.9931 18.5327 18.7002 17.8203 18.4231Z" fill="#EE4D2D"/>
</svg>
