<svg width="24" height="24" viewBox="0 0 24 24" fill="none" xmlns="http://www.w3.org/2000/svg">
<path fill-rule="evenodd" clip-rule="evenodd" d="M13.2298 14.8142C13.1987 14.2782 13.4564 13.7664 13.9057 13.4723C15.0609 12.716 15.9545 11.3579 15.9545 10.1818V7.45455C15.9545 6.31665 15.5961 5.33329 14.9783 4.65231C14.3818 3.99471 13.4376 3.5 12 3.5C10.5624 3.5 9.61822 3.99471 9.02167 4.65231C8.40389 5.33329 8.04545 6.31665 8.04545 7.45455V10.1818C8.04545 11.3534 8.9422 12.7147 10.0968 13.4739C10.545 13.7687 10.8018 14.2803 10.7701 14.8157C10.7385 15.3512 10.4233 15.829 9.94355 16.0689L3.77639 19.1525C3.607 19.2372 3.5 19.4103 3.5 19.5997V20.5H20.5V19.5997C20.5 19.4103 20.393 19.2372 20.2236 19.1525L14.0565 16.0689C13.5762 15.8288 13.2609 15.3503 13.2298 14.8142ZM15.9594 13.6663C16.8262 12.7087 17.4545 11.4597 17.4545 10.1818V7.45455C17.4545 4.56705 15.6321 2 12 2C8.36793 2 6.54545 4.56705 6.54545 7.45455V10.1818C6.54545 11.4576 7.17614 12.707 8.0427 13.6652C8.419 14.0814 8.83979 14.4426 9.27273 14.7273L3.10557 17.8108C2.428 18.1496 2 18.8422 2 19.5997V22H22V19.5997C22 18.8422 21.572 18.1496 20.8944 17.8108L14.7273 14.7273C15.1616 14.4429 15.583 14.0821 15.9594 13.6663Z" fill="black" fill-opacity="0.65"/>
</svg>
