<svg width="24" height="24" viewBox="0 0 24 24" fill="none" xmlns="http://www.w3.org/2000/svg">
<path fill-rule="evenodd" clip-rule="evenodd" d="M19 3H15C14.337 1.667 13.337 1 12 1C10.662 1 9.662 1.667 9 3H5C3.89543 3 3 3.89543 3 5V16C3 16.543 2.89 17.623 2.5 18L1.6 19.2C1.535 19.286 1.5 19.392 1.5 19.5C1.5 19.776 1.724 20 2 20H8.12598C8.57002 21.7252 10.1361 23 12 23C13.8638 23 15.4299 21.7252 15.8739 20H22C22.108 20 22.213 19.965 22.3 19.9C22.521 19.734 22.565 19.421 22.4 19.2L21.5 18C21.109 17.623 21 16.543 21 16V5C21 3.89543 20.1046 3 19 3ZM14.2919 20H9.70798C10.0938 20.883 10.9748 21.5 12 21.5C13.0251 21.5 13.9062 20.883 14.2919 20ZM15 4.5H18.5C19.0523 4.5 19.5 4.94772 19.5 5.5V16C19.5 16.919 19.633 17.815 20.017 18.5H3.982C4.366 17.814 4.5 16.918 4.5 16V5.5C4.5 4.94772 4.94772 4.5 5.5 4.5H9C9.569 4.5 10.09 4.178 10.343 3.667C10.76 2.828 11.252 2.5 12 2.5C12.747 2.5 13.239 2.828 13.657 3.667C13.91 4.178 14.43 4.5 15 4.5Z" fill="black" fill-opacity="0.65"/>
</svg>
