<svg width="24" height="24" viewBox="0 0 24 24" fill="none" xmlns="http://www.w3.org/2000/svg">
<path d="M8 6H6V8H8V6Z" fill="#EE4D2D"/>
<path fill-rule="evenodd" clip-rule="evenodd" d="M3 4V10C3 10.5523 3.44772 11 4 11H10C10.5523 11 11 10.5523 11 10V4C11 3.44772 10.5523 3 10 3H4C3.44772 3 3 3.44772 3 4ZM4.5 9.5H9.5V4.5H4.5V9.5Z" fill="#EE4D2D"/>
<path d="M13 14V21H14.5V14.5H16V16.5C16 17.0523 16.4477 17.5 17 17.5H20C20.5523 17.5 21 17.0523 21 16.5V13H19.5V16H17.5V14C17.5 13.4477 17.0523 13 16.5 13H14C13.4477 13 13 13.4477 13 14Z" fill="#EE4D2D"/>
<path d="M16 6H18V8H16V6Z" fill="#EE4D2D"/>
<path fill-rule="evenodd" clip-rule="evenodd" d="M13 10V4C13 3.44772 13.4477 3 14 3H20C20.5523 3 21 3.44772 21 4V10C21 10.5523 20.5523 11 20 11H14C13.4477 11 13 10.5523 13 10ZM19.5 9.5H14.5V4.5H19.5V9.5Z" fill="#EE4D2D"/>
<path d="M8 16H6V18H8V16Z" fill="#EE4D2D"/>
<path fill-rule="evenodd" clip-rule="evenodd" d="M3 14V20C3 20.5523 3.44772 21 4 21H10C10.5523 21 11 20.5523 11 20V14C11 13.4477 10.5523 13 10 13H4C3.44772 13 3 13.4477 3 14ZM4.5 19.5H9.5V14.5H4.5V19.5Z" fill="#EE4D2D"/>
<path d="M18 19V21H16V19H18Z" fill="#EE4D2D"/>
<path d="M19 21H21V19H19V21Z" fill="#EE4D2D"/>
</svg>
