<svg width="24" height="24" viewBox="0 0 24 24" fill="none" xmlns="http://www.w3.org/2000/svg">
<path d="M2.25 3C2.25 2.58579 2.58579 2.25 3 2.25H8V3.75H3.75V8H2.25V3Z" fill="#ee4d2d" fill-opacity="0.65"/>
<path d="M21.75 3C21.75 2.58579 21.4142 2.25 21 2.25H16V3.75H20.25V8H21.75V3Z" fill="#ee4d2d" fill-opacity="0.65"/>
<path d="M2.25 21C2.25 21.4142 2.58579 21.75 3 21.75H8V20.25H3.75L3.75 16H2.25L2.25 21Z" fill="#ee4d2d" fill-opacity="0.65"/>
<path d="M21 21.75C21.4142 21.75 21.75 21.4142 21.75 21V16H20.25V20.25H16V21.75H21Z" fill="#ee4d2d" fill-opacity="0.65"/>
<path d="M2 12.75H22V11.25H2V12.75Z" fill="#ee4d2d"/>
</svg>
