<svg width="24" height="24" viewBox="0 0 24 24" fill="none" xmlns="http://www.w3.org/2000/svg">
<path fill-rule="evenodd" clip-rule="evenodd" d="M17.1502 1.46392C17.1502 1.46392 18.4831 4.81443 18.7395 5.4433C20.6466 6.28866 21.9897 8.20618 22 10.4433C22 11.6495 21.6001 12.7423 20.9439 13.6495C20.5543 13.4227 20.1134 13.299 19.6725 13.2887C20.3492 12.5361 20.7799 11.5464 20.7799 10.4536C20.7799 8.1134 18.8933 6.21649 16.5658 6.21649C14.2383 6.21649 12.3517 8.1134 12.3517 10.4536C12.3517 12.7938 14.2383 14.6907 16.5658 14.6907C16.5965 14.6907 16.6247 14.6856 16.6529 14.6804C16.6811 14.6753 16.7093 14.6701 16.7401 14.6701L15.2328 15.7216C12.8848 15.1134 11.1315 12.9897 11.1315 10.4433C11.1315 9.71134 11.2751 9.02062 11.5314 8.38144C11.4699 8.36082 11.4289 8.3402 11.4289 8.3402C11.1623 8.23711 10.7932 8.04123 10.4958 7.74227C10.0242 8.2268 9.31668 8.51546 8.5887 8.51546C7.84021 8.51546 7.14299 8.21649 6.65083 7.70103C6.2407 8.05154 5.82031 8.29897 5.37942 8.43299V14.3608L3.95421 14.9897V8.43299C3.81067 8.39175 3.66712 8.32989 3.53383 8.26804C3.04167 8.02062 2.62129 7.60824 2.34445 7.1134C2.06761 6.61855 1.95482 5.82474 2.01634 5.56701C2.07786 5.29897 3.86193 1.40206 3.86193 1.40206C4.02599 1.06186 4.31308 1.03093 4.62068 1H10.4548C12.9095 1.00991 16.3121 1.00076 16.5797 1.00004L16.5965 1C16.7503 1.02062 16.9861 1.07216 17.1502 1.46392ZM12.2081 7.11855C12.2261 7.12371 12.244 7.12886 12.2696 7.13402C13.2642 5.83505 14.8022 4.97938 16.5555 4.97938C16.6835 4.97938 16.8059 4.99605 16.9309 5.01307C16.9762 5.01923 17.0218 5.02544 17.0682 5.03093L16.0121 2.39175L5.0103 2.37113C5.0103 2.37113 3.71839 5.24742 3.4518 5.8866C3.4518 6.27835 3.56459 6.57732 3.77991 6.7835C4.02599 7.02062 4.34384 7.14433 4.92828 7.1134C5.34866 7.10309 5.97411 6.57732 5.97411 5.8866C5.97411 5.74227 6.06639 5.59794 6.28171 5.59794L7.05071 5.58763C7.26603 5.58763 7.36856 5.74227 7.36856 5.89691C7.36856 6.3402 7.63514 7.10309 8.60921 7.14433C8.84503 7.15464 9.19364 7.06185 9.44998 6.82474C9.6858 6.59794 9.80884 6.28866 9.80884 5.90721C9.80884 5.71134 9.93188 5.58763 10.1267 5.58763H10.8649C10.8649 5.58763 11.2135 5.54639 11.2135 5.91752C11.2135 6.18556 11.3161 6.46392 11.4904 6.69072C11.6647 6.8969 11.8903 7.04123 12.1466 7.10309C12.1722 7.10824 12.1902 7.1134 12.2081 7.11855ZM18.3911 14.4433C19.2012 13.8763 20.206 13.9278 20.8929 14.5567C21.8157 15.4021 21.744 16.8454 20.7391 17.6082L16.2687 20.8969C16.1971 20.9495 16.1254 21.0014 16.0539 21.0532L16.0539 21.0532L16.0539 21.0533C15.8595 21.194 15.6666 21.3338 15.4792 21.4845C14.9153 21.9175 14.2898 22.1031 13.5824 22.1031C11.2549 22.0928 8.9171 22.0928 6.58961 22.1031C6.39479 22.1031 6.19998 22.1443 6.02568 22.2165C5.54377 22.4021 5.06187 22.5979 4.57996 22.7938C4.4928 22.8299 4.40819 22.8634 4.32359 22.8969L4.32356 22.8969L4.32352 22.8969C4.23896 22.9304 4.15441 22.9639 4.0673 23C4.02106 22.8867 3.97482 22.7725 3.9288 22.6589L3.92873 22.6587L3.9287 22.6587L3.92869 22.6586L3.92868 22.6586C3.8115 22.3694 3.6958 22.0838 3.58539 21.8247L4.12882 21.6185C4.35169 21.5297 4.576 21.4394 4.80121 21.3487L4.80133 21.3487L4.80139 21.3486L4.80145 21.3486C5.1771 21.1974 5.55525 21.0451 5.9334 20.8969C6.04618 20.8557 6.17946 20.8557 6.31275 20.8557H6.31277L6.35001 20.8556H6.35074H6.35127C6.80918 20.8547 11.2308 20.8459 13.4798 20.8557C13.9617 20.866 14.3719 20.7319 14.7615 20.4433C15.6094 19.8132 17.1789 18.6611 18.3625 17.7923L18.3642 17.791L18.365 17.7905L18.3651 17.7903L18.3684 17.7879C19.1572 17.2089 19.7734 16.7566 19.8881 16.6701C20.165 16.4639 20.3188 16.2165 20.2265 15.866C20.1239 15.4227 19.6523 15.2165 19.2524 15.433C19.1909 15.4639 17.8067 16.433 17.8067 16.433C17.8067 16.433 15.7868 17.835 14.7922 18.5567C14.3719 18.866 13.9412 19.0515 13.4183 19.0722C12.598 19.1134 11.7675 19.1752 10.9473 19.2371L10.773 19.2463C10.2906 19.2719 9.39273 19.3196 9.34774 19.3196L9.32138 18.9695C9.29941 18.6792 9.27744 18.3888 9.25546 18.0722L10.7627 17.9484C10.9267 17.933 11.0933 17.9201 11.2599 17.9072C11.4266 17.8943 11.5932 17.8814 11.7573 17.866C12.0649 17.835 12.3212 17.7216 12.4647 17.433C12.5878 17.1856 12.5878 16.9175 12.434 16.6804C12.2699 16.4433 12.0341 16.3299 11.747 16.3608C10.9214 16.4552 10.0871 16.5409 9.26005 16.6258L9.25977 16.6259L9.02989 16.6495L8.83384 16.6705L8.83354 16.6705C8.19463 16.7392 6.81126 16.8877 6.61011 16.8969C6.22049 16.9072 5.89238 17.0309 5.55403 17.2062C5.03111 17.4742 3.99553 17.9897 3.99553 17.9897C3.99553 17.9897 3.2778 18.3505 3.24704 18.3608C3.1967 18.2647 3.07965 18.0343 2.9626 17.804L2.9624 17.8036C2.84108 17.5649 2.7198 17.3263 2.67285 17.2371L2.70773 17.2193C2.84238 17.1507 3.32339 16.9056 3.49311 16.8247C3.57937 16.7814 3.66563 16.7384 3.75172 16.6956L3.75181 16.6955C4.0955 16.5244 4.43657 16.3545 4.76452 16.1649C5.46175 15.7629 6.21024 15.6392 6.98949 15.567C7.72772 15.4948 9.2042 15.3402 9.2042 15.3402C9.52608 15.3049 10.0818 15.2494 10.5129 15.2064L10.5134 15.2064L10.5136 15.2063C10.8374 15.174 11.0908 15.1487 11.1216 15.1443C11.4804 15.1031 11.8495 15.0618 12.1982 15.1237C13.326 15.3093 14.013 16.3505 13.8079 17.4742C13.7977 17.5051 13.7874 17.6289 13.7874 17.6701C13.8079 17.6546 13.8617 17.6186 13.9156 17.5825C13.9694 17.5464 14.0232 17.5103 14.0437 17.4948L15.2741 16.6289C16.3097 15.8969 17.3556 15.1649 18.3911 14.4433ZM15.0395 7.8557H16.3417L16.4951 7.85866V7.35051H16.977V7.87123C16.978 7.87131 16.9789 7.87138 16.9798 7.87146C17.0105 7.87393 17.0401 7.87632 17.0697 7.87632C17.1312 7.87632 17.1927 7.88663 17.244 7.89693C17.4286 7.91755 17.5926 7.9691 17.7362 8.04126C17.8797 8.11343 18.013 8.21652 18.1053 8.31961C18.1976 8.42271 18.2796 8.55673 18.3411 8.69075C18.3924 8.82477 18.4231 8.9691 18.4231 9.11343C18.4231 9.26807 18.4129 9.39178 18.3821 9.49487C18.367 9.57094 18.3407 9.63579 18.3156 9.69769C18.3067 9.71968 18.2979 9.7413 18.2898 9.76291C18.2488 9.83508 18.2078 9.89693 18.1668 9.94848C18.1258 10 18.0745 10.0516 18.0335 10.0825C18.2078 10.165 18.3616 10.299 18.4949 10.4846C18.6282 10.6701 18.7 10.9279 18.7 11.2474C18.7 11.4536 18.659 11.6392 18.5872 11.7938C18.5154 11.9485 18.4129 12.0928 18.2898 12.2062C18.1668 12.3196 18.0233 12.4124 17.8489 12.4743C17.6849 12.5361 17.5106 12.5773 17.3158 12.598C17.2923 12.598 17.2645 12.6001 17.2344 12.6025H17.2344C17.1988 12.6052 17.1599 12.6083 17.121 12.6083H16.977V13.1134H16.4951V12.6083H16.3417H15.0395V7.8557ZM16.977 11.7686C16.9992 11.7671 17.0199 11.7653 17.0389 11.7629C17.3158 11.7526 17.5208 11.6907 17.6439 11.5773C17.7772 11.4639 17.8387 11.3299 17.8387 11.1547C17.8387 10.9691 17.7669 10.8248 17.6131 10.7217C17.4696 10.6186 17.2543 10.5567 16.9877 10.5464C16.9841 10.5464 16.9806 10.5464 16.977 10.5464V11.7686ZM16.4951 10.5464V11.7732H16.3007H15.8803V10.5464H16.3007H16.4951ZM16.977 9.74565C16.9877 9.74467 16.9981 9.74356 17.0082 9.74229C17.1825 9.72168 17.326 9.67013 17.4286 9.59797C17.5413 9.51549 17.5926 9.39178 17.5926 9.20621C17.5926 9.06188 17.5413 8.94848 17.4286 8.86601C17.3158 8.78353 17.1825 8.73199 17.0082 8.71137C16.9981 8.7101 16.9877 8.70883 16.977 8.70759V9.74565ZM16.4951 8.69075V9.7526H16.3212V9.76291H15.8803V8.69075H16.3212H16.4951Z" fill="#EE4D2D"/>
</svg>
