<svg width="60" height="60" viewBox="0 0 60 60" fill="none" xmlns="http://www.w3.org/2000/svg">
  <!-- 透明背景 便于融入卡片 -->
  <circle cx="30" cy="30" r="28" fill="white" fill-opacity="0.9"/>
  
  <!-- 主信用卡元素 -->
  <rect x="13" y="18" width="34" height="24" rx="4" fill="#ee4d2d" filter="drop-shadow(0 2px 4px rgba(0,0,0,0.1))"/>
  
  <!-- 卡面装饰 -->
  <rect x="13" y="26" width="34" height="4" fill="white" fill-opacity="0.15"/>
  
  <!-- 芯片 -->
  <rect x="18" y="22" width="6" height="5" rx="1" fill="gold" fill-opacity="0.9"/>
  
  <!-- 卡号 -->
  <rect x="18" y="32" width="24" height="2" rx="1" fill="white" fill-opacity="0.6"/>
  
  <!-- S品牌标志 -->
  <path d="M44 22C44 22 41 24 38 22C35 20 35 24 38 26C41 28 35 30 32 28" 
  stroke="white" stroke-width="2" stroke-linecap="round"/>
  
  <!-- 支付波纹(动感弧线) -->
  <path d="M15 42C19 46 25 48 30 48C35 48 41 46 45 42" stroke="#ee4d2d" stroke-width="3" stroke-linecap="round"/>
  <path d="M18 38C21 41 25 43 30 43C35 43 39 41 42 38" stroke="#ee4d2d" stroke-width="3" stroke-linecap="round"/>
  <path d="M21 34C23 36 26 38 30 38C34 38 37 36 39 34" stroke="#ee4d2d" stroke-width="3" stroke-linecap="round"/>
</svg> 