<svg width="24" height="24" viewBox="0 0 24 24" fill="none" xmlns="http://www.w3.org/2000/svg">
<path fill-rule="evenodd" clip-rule="evenodd" d="M16.7054 4.24773C18.9368 6.55837 19.4074 10.0434 17.8932 12.8521L16.5313 12.3674C17.877 10.078 17.535 7.15785 15.6805 5.23746C13.403 2.87898 9.6447 2.81338 7.28622 5.09094C4.99172 7.30671 4.86073 10.9376 6.97606 13.3089L7.06133 13.4012L5.48083 13.7255C3.41858 10.9309 3.59785 7.04494 5.92698 4.44922L6.29649 4.06604C9.22101 1.24187 13.8812 1.32321 16.7054 4.24773ZM20.4277 14.5957L20.5417 14.7214L20.7321 14.9939C21.2074 15.8118 21.0374 16.856 20.324 17.4833L14.7674 21.2881C14.4134 21.5088 14.0107 21.642 13.5903 21.6757L6.41907 21.6769L4.33418 22.5224L3.79878 21.202L5.99526 20.3113C6.05187 20.2884 6.26296 20.2591 6.26296 20.2591H13.3849C13.5965 20.2591 13.804 20.2026 13.9818 20.0983L14.0949 20.0236L19.348 16.4417C19.5657 16.2804 19.6364 15.9873 19.523 15.7527L19.4181 15.6014C19.2619 15.4423 19.0194 15.4005 18.8257 15.4944L13.9595 18.6152C13.8798 18.6714 13.7896 18.7106 13.6879 18.7316L9.51934 19.0262L9.25666 19.0448L9.15518 18.9567L9.06978 17.7248L9.15793 17.6235L11.5985 17.4334C11.9122 17.4053 12.1566 17.151 12.1741 16.8459L12.1583 16.6598C12.0972 16.4106 11.8772 16.2304 11.6294 16.2194L6.33251 16.4568L6.24169 16.4824L3.64378 17.7982L3 16.5272L5.59791 15.2113C5.73282 15.143 5.87637 15.0934 6.02883 15.0632L6.17965 15.0408L11.3843 14.8053C12.4298 14.6946 13.3812 15.4107 13.5681 16.4429L13.6001 16.7965C13.6006 16.9196 13.5901 17.0416 13.569 17.1614L18.0645 14.2869C18.827 13.8406 19.8024 13.9646 20.4277 14.5957ZM13.3711 8.69878C13.6011 8.80918 13.8035 8.99317 13.9875 9.24156C14.1715 9.48994 14.2635 9.83033 14.2635 10.2535C14.2635 10.5295 14.2175 10.7687 14.1163 10.9895C14.0151 11.2103 13.8863 11.3942 13.7115 11.5506C13.5459 11.707 13.3435 11.8358 13.1227 11.9186C12.8927 12.0014 12.6627 12.0566 12.4052 12.075C12.3316 12.0842 12.2396 12.0934 12.1384 12.0934H11.982V12.765H11.3104V12.0934H11.0896H9.33252V5.69974H11.0896H11.3104V5.16617H11.982V5.71814C12.0096 5.72734 12.0464 5.72734 12.074 5.72734C12.1568 5.72734 12.2396 5.73654 12.3132 5.75494C12.5616 5.77334 12.7823 5.83773 12.9755 5.94813C13.1687 6.05852 13.3343 6.18732 13.4723 6.33451C13.6103 6.4817 13.7207 6.65649 13.7851 6.83128C13.8587 7.01527 13.8955 7.19926 13.8955 7.39245C13.8955 7.59484 13.8863 7.76043 13.8495 7.89843C13.8127 8.03642 13.7759 8.15601 13.7207 8.25721C13.6747 8.3584 13.6195 8.4412 13.5551 8.51479C13.5114 8.56471 13.4678 8.60616 13.4269 8.64488C13.4076 8.66326 13.3889 8.68102 13.3711 8.69878ZM12.5616 7.05207C12.4144 6.94168 12.2212 6.87728 11.9912 6.84048L11.982 8.22961H11.9912C12.2212 8.20201 12.4144 8.12841 12.5616 8.02722C12.7087 7.92602 12.7823 7.74203 12.7823 7.50285C12.7823 7.30966 12.7087 7.16246 12.5616 7.05207ZM11.062 6.81288H10.4733V8.24801H11.062H11.3104V6.81288H11.062ZM10.4733 10.9619H11.0436H11.3196V9.30595H11.0436H10.4733V10.9619ZM12.028 10.9527C12.4052 10.9251 12.6811 10.8423 12.8559 10.6951C13.0215 10.5479 13.1135 10.3639 13.1135 10.1247C13.1135 9.87632 13.0123 9.68313 12.8099 9.54514C12.6075 9.41635 12.3316 9.33355 11.982 9.31515V10.9527H12.028Z" fill="#EE4D2D"/>
</svg>
