<svg width="60" height="60" viewBox="0 0 60 60" fill="none" xmlns="http://www.w3.org/2000/svg">
  <!-- 透明背景 便于融入卡片 -->
  <circle cx="30" cy="30" r="28" fill="white" fill-opacity="0.9"/>
  
  <!-- 主信用卡元素 - 使用绿色 -->
  <rect x="13" y="18" width="34" height="24" rx="4" fill="#1e9d33" filter="drop-shadow(0 2px 4px rgba(0,0,0,0.1))"/>
  
  <!-- 卡面装饰 -->
  <rect x="13" y="26" width="34" height="4" fill="white" fill-opacity="0.15"/>
  
  <!-- 芯片 -->
  <rect x="18" y="22" width="6" height="5" rx="1" fill="gold" fill-opacity="0.9"/>
  
  <!-- 对勾标记，表示活跃状态 -->
  <circle cx="43" cy="21" r="4" fill="white"/>
  <path d="M41 21L43 23L45 19" stroke="#1e9d33" stroke-width="1.5" stroke-linecap="round" stroke-linejoin="round"/>
  
  <!-- 卡号 -->
  <rect x="18" y="32" width="24" height="2" rx="1" fill="white" fill-opacity="0.6"/>
  
  <!-- 日历图标，表示到期日 -->
  <rect x="14" y="40" width="12" height="12" rx="2" fill="white"/>
  <rect x="16" y="42" width="2" height="2" rx="0.5" fill="#1e9d33"/>
  <rect x="20" y="42" width="2" height="2" rx="0.5" fill="#1e9d33"/>
  <rect x="16" y="46" width="2" height="2" rx="0.5" fill="#1e9d33"/>
  <rect x="20" y="46" width="2" height="2" rx="0.5" fill="#1e9d33"/>
  <path d="M14 44H26" stroke="#1e9d33" stroke-width="0.5"/>
  
  <!-- 金钱符号，表示金额 -->
  <circle cx="40" cy="46" r="6" fill="white"/>
  <path d="M40 42V44M40 44V46M40 44H38C37.4477 44 37 44.4477 37 45C37 45.5523 37.4477 46 38 46H42C42.5523 46 43 46.4477 43 47C43 47.5523 42.5523 48 42 48H40M40 48V50" 
  stroke="#1e9d33" stroke-width="1.5" stroke-linecap="round" stroke-linejoin="round"/>
</svg> 