<svg width="31" height="32" viewBox="0 0 31 32" fill="none" xmlns="http://www.w3.org/2000/svg">
<path fill-rule="evenodd" clip-rule="evenodd" d="M23.1453 0.674789C23.1453 0.674789 25.0947 5.54827 25.4695 6.46298C28.2587 7.6926 30.2231 10.4817 30.238 13.7357C30.238 15.4902 29.6532 17.0797 28.6935 18.3993C28.1237 18.0694 27.4789 17.8894 26.8341 17.8744C27.8238 16.7798 28.4536 15.3402 28.4536 13.7507C28.4536 10.3468 25.6945 7.58763 22.2905 7.58763C18.8866 7.58763 16.1275 10.3468 16.1275 13.7507C16.1275 17.1546 18.8866 19.9138 22.2905 19.9138C22.3355 19.9138 22.3768 19.9063 22.418 19.8988L22.418 19.8988C22.4592 19.8913 22.5005 19.8838 22.5455 19.8838L20.3411 21.4133C16.9072 20.5286 14.343 17.4396 14.343 13.7357C14.343 12.671 14.5529 11.6664 14.9278 10.7366C14.8379 10.7067 14.7779 10.6767 14.7779 10.6767C14.388 10.5267 13.8482 10.2418 13.4133 9.80694C12.7235 10.5117 11.6888 10.9316 10.6242 10.9316C9.52952 10.9316 8.50984 10.4967 7.79006 9.74695C7.19025 10.2568 6.57544 10.6167 5.93064 10.8116V19.4339L3.84629 20.3486V10.8116C3.63636 10.7516 3.42643 10.6617 3.23149 10.5717C2.51171 10.2118 1.8969 9.612 1.49203 8.89222C1.08716 8.17245 0.922209 7.01781 1.01218 6.64292C1.10215 6.25305 3.71134 0.584817 3.71134 0.584817C3.95126 0.0899718 4.37113 0.0449859 4.82099 0H13.3533C16.9433 0.0144177 21.9195 0.0011108 22.3109 6.41863e-05L22.3355 0C22.5604 0.0299906 22.9053 0.104967 23.1453 0.674789ZM15.9175 8.89972C15.9438 8.90722 15.97 8.91471 16.0075 8.92221C17.462 7.0328 19.7113 5.78819 22.2755 5.78819C22.4627 5.78819 22.6418 5.81244 22.8246 5.8372C22.8908 5.84616 22.9575 5.85519 23.0253 5.86317L21.4808 2.02437L5.39081 1.99438C5.39081 1.99438 3.5014 6.17807 3.11152 7.10778C3.11152 7.6776 3.27647 8.11246 3.59137 8.41237C3.95126 8.75726 4.41612 8.93721 5.27085 8.89222C5.88566 8.87723 6.80037 8.11246 6.80037 7.10778C6.80037 6.89784 6.93533 6.68791 7.25023 6.68791L8.37488 6.67291C8.68978 6.67291 8.83973 6.89784 8.83973 7.12277C8.83973 7.76757 9.22961 8.87723 10.6542 8.93721C10.9991 8.9522 11.5089 8.81724 11.8838 8.47235C12.2287 8.14246 12.4086 7.6926 12.4086 7.13777C12.4086 6.85286 12.5886 6.67291 12.8735 6.67291H13.9531C13.9531 6.67291 14.463 6.61293 14.463 7.15276C14.463 7.54264 14.6129 7.94752 14.8679 8.27741C15.1228 8.57732 15.4527 8.78725 15.8276 8.87723C15.865 8.88472 15.8913 8.89222 15.9175 8.89972ZM24.9601 19.5539C26.1447 18.7292 27.6143 18.8041 28.619 19.7188C29.9686 20.9485 29.8636 23.0478 28.394 24.1575L21.8561 28.941C21.7513 29.0175 21.6465 29.093 21.542 29.1683C21.2577 29.3731 20.9756 29.5764 20.7014 29.7957C19.8767 30.4255 18.962 30.6954 17.9273 30.6954C14.5234 30.6804 11.1044 30.6804 7.70051 30.6954C7.4156 30.6954 7.13069 30.7554 6.87577 30.8604C6.17101 31.1303 5.46626 31.4152 4.76151 31.7001L4.76148 31.7001L4.76145 31.7001L4.76143 31.7001C4.63397 31.7526 4.51026 31.8013 4.38654 31.8501C4.26283 31.8988 4.13912 31.9475 4.01166 32C3.94398 31.835 3.8763 31.6689 3.80896 31.5035L3.80889 31.5034C3.63752 31.0826 3.46834 30.6673 3.30688 30.2905L4.10163 29.9906C4.4264 29.8619 4.75325 29.731 5.08141 29.5996L5.08444 29.5984L5.08518 29.5981L5.08565 29.5979L5.08592 29.5978C5.63511 29.3779 6.18796 29.1565 6.74081 28.941C6.90575 28.881 7.10068 28.881 7.29562 28.881H7.29563L7.3501 28.8809C8.00969 28.8796 14.4851 28.8667 17.7774 28.881C18.4821 28.896 19.082 28.701 19.6518 28.2812C20.8926 27.364 23.1902 25.6867 24.9216 24.4227C26.0777 23.5787 26.9813 22.919 27.1494 22.7929C27.5543 22.493 27.7792 22.1331 27.6443 21.6233C27.4943 20.9785 26.8045 20.6786 26.2197 20.9935C26.1298 21.0384 24.1054 22.448 24.1054 22.448C24.1054 22.448 21.1513 24.4874 19.6968 25.537C19.082 25.9869 18.4522 26.2568 17.6874 26.2868C16.4878 26.3468 15.2731 26.4368 14.0735 26.5267L13.8157 26.5403C13.1093 26.5776 11.8 26.6467 11.7342 26.6467C11.7214 26.4753 11.7085 26.3064 11.6957 26.1375C11.6636 25.7152 11.6314 25.2928 11.5993 24.8323L13.8036 24.6523C14.0435 24.6298 14.2872 24.6111 14.5309 24.5923H14.5309H14.5309C14.7746 24.5736 15.0182 24.5548 15.2581 24.5323C15.708 24.4874 16.0829 24.3224 16.2928 23.9025C16.4728 23.5427 16.4728 23.1528 16.2478 22.8079C16.0079 22.463 15.663 22.298 15.2432 22.343C14.0357 22.4802 12.8157 22.6049 11.6061 22.7285L11.6059 22.7285L11.6056 22.7285L11.2694 22.7629L10.9826 22.7935C10.0483 22.8933 8.02471 23.1094 7.7305 23.1228C7.16068 23.1378 6.68083 23.3177 6.18598 23.5726C5.42122 23.9625 3.90669 24.7123 3.90669 24.7123C3.90669 24.7123 2.85702 25.2371 2.81204 25.2521C2.73843 25.1123 2.56728 24.7773 2.39611 24.4424L2.39606 24.4422L2.39589 24.4419L2.39586 24.4419C2.2184 24.0946 2.04098 23.7474 1.9723 23.6176L2.02326 23.5918C2.22011 23.492 2.92368 23.1354 3.17192 23.0178C3.29814 22.9547 3.42435 22.8922 3.55033 22.8298C4.05295 22.5809 4.55173 22.3339 5.03134 22.0581C6.05102 21.4733 7.14568 21.2934 8.28533 21.1884C9.36499 21.0834 11.5243 20.8585 11.5243 20.8585C11.9952 20.8071 12.8084 20.7264 13.4389 20.6638L13.4393 20.6638L13.4396 20.6638C13.913 20.6168 14.2834 20.58 14.3284 20.5736C14.8533 20.5136 15.3931 20.4536 15.9029 20.5436C17.5524 20.8135 18.5571 22.328 18.2572 23.9625C18.2422 24.0075 18.2272 24.1875 18.2272 24.2474C18.2572 24.225 18.3358 24.1726 18.4144 24.1201L18.4145 24.1201L18.4147 24.12L18.4148 24.1199L18.4149 24.1198C18.4935 24.0674 18.5721 24.015 18.6021 23.9925L20.4015 22.7329C21.9161 21.6682 23.4456 20.6036 24.9601 19.5539ZM20.0586 9.97192H21.963L22.1875 9.97624V9.23712H22.8923V9.99453C22.8936 9.99464 22.8949 9.99474 22.8962 9.99485H22.8962C22.9412 9.99845 22.9844 10.0019 23.0277 10.0019C23.1176 10.0019 23.2076 10.0169 23.2826 10.0319C23.5525 10.0619 23.7924 10.1369 24.0024 10.2418C24.2123 10.3468 24.4072 10.4968 24.5422 10.6467C24.6772 10.7967 24.7971 10.9916 24.8871 11.1865C24.9621 11.3815 25.007 11.5914 25.007 11.8014C25.007 12.0263 24.9921 12.2062 24.9471 12.3562C24.9249 12.4668 24.8865 12.5612 24.8498 12.6512C24.8367 12.6832 24.8239 12.7146 24.8121 12.7461C24.7521 12.851 24.6921 12.941 24.6322 13.016C24.5722 13.091 24.4972 13.1659 24.4372 13.2109C24.6921 13.3309 24.9171 13.5258 25.112 13.7957C25.307 14.0656 25.4119 14.4405 25.4119 14.9054C25.4119 15.2053 25.3519 15.4752 25.247 15.7001C25.142 15.9251 24.9921 16.135 24.8121 16.2999C24.6322 16.4649 24.4222 16.5999 24.1673 16.6898C23.9274 16.7798 23.6725 16.8398 23.3876 16.8698C23.3532 16.8698 23.3126 16.8729 23.2685 16.8763C23.2164 16.8804 23.1595 16.8848 23.1026 16.8848H22.8923V17.6195H22.1875V16.8848H21.963H20.0586V9.97192ZM22.8923 15.6633C22.9247 15.6613 22.9549 15.6586 22.9827 15.6551C23.3876 15.6402 23.6875 15.5502 23.8674 15.3852C24.0623 15.2203 24.1523 15.0253 24.1523 14.7704C24.1523 14.5005 24.0473 14.2906 23.8224 14.1406C23.6125 13.9907 23.2976 13.9007 22.9077 13.8857C22.9026 13.8857 22.8974 13.8857 22.8923 13.8856V15.6633ZM22.1875 13.8857V15.6701H21.903H21.2882V13.8857H21.903H22.1875ZM22.8923 12.7209C22.9078 12.7195 22.923 12.7179 22.9377 12.7161C23.1926 12.6861 23.4025 12.6111 23.5525 12.5061C23.7175 12.3862 23.7924 12.2062 23.7924 11.9363C23.7924 11.7264 23.7175 11.5614 23.5525 11.4415C23.3876 11.3215 23.1926 11.2465 22.9377 11.2165C22.923 11.2147 22.9078 11.2129 22.8923 11.2111V12.7209ZM22.1875 11.1865V12.7311H21.933V12.7461H21.2882V11.1865H21.933H22.1875Z" fill="#EE4D2D"/>
<path fill-rule="evenodd" clip-rule="evenodd" d="M23.1453 0.674789C23.1453 0.674789 25.0947 5.54827 25.4695 6.46298C28.2587 7.6926 30.2231 10.4817 30.238 13.7357C30.238 15.4902 29.6532 17.0797 28.6935 18.3993C28.1237 18.0694 27.4789 17.8894 26.8341 17.8744C27.8238 16.7798 28.4536 15.3402 28.4536 13.7507C28.4536 10.3468 25.6945 7.58763 22.2905 7.58763C18.8866 7.58763 16.1275 10.3468 16.1275 13.7507C16.1275 17.1546 18.8866 19.9138 22.2905 19.9138C22.3355 19.9138 22.3768 19.9063 22.418 19.8988L22.418 19.8988C22.4592 19.8913 22.5005 19.8838 22.5455 19.8838L20.3411 21.4133C16.9072 20.5286 14.343 17.4396 14.343 13.7357C14.343 12.671 14.5529 11.6664 14.9278 10.7366C14.8379 10.7067 14.7779 10.6767 14.7779 10.6767C14.388 10.5267 13.8482 10.2418 13.4133 9.80694C12.7235 10.5117 11.6888 10.9316 10.6242 10.9316C9.52952 10.9316 8.50984 10.4967 7.79006 9.74695C7.19025 10.2568 6.57544 10.6167 5.93064 10.8116V19.4339L3.84629 20.3486V10.8116C3.63636 10.7516 3.42643 10.6617 3.23149 10.5717C2.51171 10.2118 1.8969 9.612 1.49203 8.89222C1.08716 8.17245 0.922209 7.01781 1.01218 6.64292C1.10215 6.25305 3.71134 0.584817 3.71134 0.584817C3.95126 0.0899718 4.37113 0.0449859 4.82099 0H13.3533C16.9433 0.0144177 21.9195 0.0011108 22.3109 6.41863e-05L22.3355 0C22.5604 0.0299906 22.9053 0.104967 23.1453 0.674789ZM15.9175 8.89972C15.9438 8.90722 15.97 8.91471 16.0075 8.92221C17.462 7.0328 19.7113 5.78819 22.2755 5.78819C22.4627 5.78819 22.6418 5.81244 22.8246 5.8372C22.8908 5.84616 22.9575 5.85519 23.0253 5.86317L21.4808 2.02437L5.39081 1.99438C5.39081 1.99438 3.5014 6.17807 3.11152 7.10778C3.11152 7.6776 3.27647 8.11246 3.59137 8.41237C3.95126 8.75726 4.41612 8.93721 5.27085 8.89222C5.88566 8.87723 6.80037 8.11246 6.80037 7.10778C6.80037 6.89784 6.93533 6.68791 7.25023 6.68791L8.37488 6.67291C8.68978 6.67291 8.83973 6.89784 8.83973 7.12277C8.83973 7.76757 9.22961 8.87723 10.6542 8.93721C10.9991 8.9522 11.5089 8.81724 11.8838 8.47235C12.2287 8.14246 12.4086 7.6926 12.4086 7.13777C12.4086 6.85286 12.5886 6.67291 12.8735 6.67291H13.9531C13.9531 6.67291 14.463 6.61293 14.463 7.15276C14.463 7.54264 14.6129 7.94752 14.8679 8.27741C15.1228 8.57732 15.4527 8.78725 15.8276 8.87723C15.865 8.88472 15.8913 8.89222 15.9175 8.89972ZM24.9601 19.5539C26.1447 18.7292 27.6143 18.8041 28.619 19.7188C29.9686 20.9485 29.8636 23.0478 28.394 24.1575L21.8561 28.941C21.7513 29.0175 21.6465 29.093 21.542 29.1683C21.2577 29.3731 20.9756 29.5764 20.7014 29.7957C19.8767 30.4255 18.962 30.6954 17.9273 30.6954C14.5234 30.6804 11.1044 30.6804 7.70051 30.6954C7.4156 30.6954 7.13069 30.7554 6.87577 30.8604C6.17101 31.1303 5.46626 31.4152 4.76151 31.7001L4.76148 31.7001L4.76145 31.7001L4.76143 31.7001C4.63397 31.7526 4.51026 31.8013 4.38654 31.8501C4.26283 31.8988 4.13912 31.9475 4.01166 32C3.94398 31.835 3.8763 31.6689 3.80896 31.5035L3.80889 31.5034C3.63752 31.0826 3.46834 30.6673 3.30688 30.2905L4.10163 29.9906C4.4264 29.8619 4.75325 29.731 5.08141 29.5996L5.08444 29.5984L5.08518 29.5981L5.08565 29.5979L5.08592 29.5978C5.63511 29.3779 6.18796 29.1565 6.74081 28.941C6.90575 28.881 7.10068 28.881 7.29562 28.881H7.29563L7.3501 28.8809C8.00969 28.8796 14.4851 28.8667 17.7774 28.881C18.4821 28.896 19.082 28.701 19.6518 28.2812C20.8926 27.364 23.1902 25.6867 24.9216 24.4227C26.0777 23.5787 26.9813 22.919 27.1494 22.7929C27.5543 22.493 27.7792 22.1331 27.6443 21.6233C27.4943 20.9785 26.8045 20.6786 26.2197 20.9935C26.1298 21.0384 24.1054 22.448 24.1054 22.448C24.1054 22.448 21.1513 24.4874 19.6968 25.537C19.082 25.9869 18.4522 26.2568 17.6874 26.2868C16.4878 26.3468 15.2731 26.4368 14.0735 26.5267L13.8157 26.5403C13.1093 26.5776 11.8 26.6467 11.7342 26.6467C11.7214 26.4753 11.7085 26.3064 11.6957 26.1375C11.6636 25.7152 11.6314 25.2928 11.5993 24.8323L13.8036 24.6523C14.0435 24.6298 14.2872 24.6111 14.5309 24.5923H14.5309H14.5309C14.7746 24.5736 15.0182 24.5548 15.2581 24.5323C15.708 24.4874 16.0829 24.3224 16.2928 23.9025C16.4728 23.5427 16.4728 23.1528 16.2478 22.8079C16.0079 22.463 15.663 22.298 15.2432 22.343C14.0357 22.4802 12.8157 22.6049 11.6061 22.7285L11.6059 22.7285L11.6056 22.7285L11.2694 22.7629L10.9826 22.7935C10.0483 22.8933 8.02471 23.1094 7.7305 23.1228C7.16068 23.1378 6.68083 23.3177 6.18598 23.5726C5.42122 23.9625 3.90669 24.7123 3.90669 24.7123C3.90669 24.7123 2.85702 25.2371 2.81204 25.2521C2.73843 25.1123 2.56728 24.7773 2.39611 24.4424L2.39606 24.4422L2.39589 24.4419L2.39586 24.4419C2.2184 24.0946 2.04098 23.7474 1.9723 23.6176L2.02326 23.5918C2.22011 23.492 2.92368 23.1354 3.17192 23.0178C3.29814 22.9547 3.42435 22.8922 3.55033 22.8298C4.05295 22.5809 4.55173 22.3339 5.03134 22.0581C6.05102 21.4733 7.14568 21.2934 8.28533 21.1884C9.36499 21.0834 11.5243 20.8585 11.5243 20.8585C11.9952 20.8071 12.8084 20.7264 13.4389 20.6638L13.4393 20.6638L13.4396 20.6638C13.913 20.6168 14.2834 20.58 14.3284 20.5736C14.8533 20.5136 15.3931 20.4536 15.9029 20.5436C17.5524 20.8135 18.5571 22.328 18.2572 23.9625C18.2422 24.0075 18.2272 24.1875 18.2272 24.2474C18.2572 24.225 18.3358 24.1726 18.4144 24.1201L18.4145 24.1201L18.4147 24.12L18.4148 24.1199L18.4149 24.1198C18.4935 24.0674 18.5721 24.015 18.6021 23.9925L20.4015 22.7329C21.9161 21.6682 23.4456 20.6036 24.9601 19.5539ZM20.0586 9.97192H21.963L22.1875 9.97624V9.23712H22.8923V9.99453C22.8936 9.99464 22.8949 9.99474 22.8962 9.99485H22.8962C22.9412 9.99845 22.9844 10.0019 23.0277 10.0019C23.1176 10.0019 23.2076 10.0169 23.2826 10.0319C23.5525 10.0619 23.7924 10.1369 24.0024 10.2418C24.2123 10.3468 24.4072 10.4968 24.5422 10.6467C24.6772 10.7967 24.7971 10.9916 24.8871 11.1865C24.9621 11.3815 25.007 11.5914 25.007 11.8014C25.007 12.0263 24.9921 12.2062 24.9471 12.3562C24.9249 12.4668 24.8865 12.5612 24.8498 12.6512C24.8367 12.6832 24.8239 12.7146 24.8121 12.7461C24.7521 12.851 24.6921 12.941 24.6322 13.016C24.5722 13.091 24.4972 13.1659 24.4372 13.2109C24.6921 13.3309 24.9171 13.5258 25.112 13.7957C25.307 14.0656 25.4119 14.4405 25.4119 14.9054C25.4119 15.2053 25.3519 15.4752 25.247 15.7001C25.142 15.9251 24.9921 16.135 24.8121 16.2999C24.6322 16.4649 24.4222 16.5999 24.1673 16.6898C23.9274 16.7798 23.6725 16.8398 23.3876 16.8698C23.3532 16.8698 23.3126 16.8729 23.2685 16.8763C23.2164 16.8804 23.1595 16.8848 23.1026 16.8848H22.8923V17.6195H22.1875V16.8848H21.963H20.0586V9.97192ZM22.8923 15.6633C22.9247 15.6613 22.9549 15.6586 22.9827 15.6551C23.3876 15.6402 23.6875 15.5502 23.8674 15.3852C24.0623 15.2203 24.1523 15.0253 24.1523 14.7704C24.1523 14.5005 24.0473 14.2906 23.8224 14.1406C23.6125 13.9907 23.2976 13.9007 22.9077 13.8857C22.9026 13.8857 22.8974 13.8857 22.8923 13.8856V15.6633ZM22.1875 13.8857V15.6701H21.903H21.2882V13.8857H21.903H22.1875ZM22.8923 12.7209C22.9078 12.7195 22.923 12.7179 22.9377 12.7161C23.1926 12.6861 23.4025 12.6111 23.5525 12.5061C23.7175 12.3862 23.7924 12.2062 23.7924 11.9363C23.7924 11.7264 23.7175 11.5614 23.5525 11.4415C23.3876 11.3215 23.1926 11.2465 22.9377 11.2165C22.923 11.2147 22.9078 11.2129 22.8923 11.2111V12.7209ZM22.1875 11.1865V12.7311H21.933V12.7461H21.2882V11.1865H21.933H22.1875Z" fill="url(#paint0_linear_50_2)"/>
<defs>
<linearGradient id="paint0_linear_50_2" x1="15.6132" y1="0" x2="15.6132" y2="31.0266" gradientUnits="userSpaceOnUse">
<stop stop-color="#E79911"/>
<stop offset="1" stop-color="#EE4D2D"/>
</linearGradient>
</defs>
</svg>
