<svg width="24" height="24" viewBox="0 0 24 24" fill="none" xmlns="http://www.w3.org/2000/svg">
<path fill-rule="evenodd" clip-rule="evenodd" d="M15.6839 17.4671C15.5516 18.5301 14.8905 19.3817 13.8666 19.8081C13.2967 20.0454 12.5329 20.1731 11.9273 20.1329C10.9855 20.0978 10.1002 19.8741 9.28481 19.4662C8.9879 19.3176 8.55267 19.0243 8.22458 18.7559C8.14987 18.695 8.11134 18.6402 8.18329 18.5409C8.25996 18.428 8.56335 17.998 8.61106 17.927C8.6756 17.8306 8.78149 17.8257 8.87867 17.9003C8.89204 17.9103 8.99066 17.9854 9.01051 17.9999C9.79566 18.5991 10.8083 19.0491 11.9335 19.0912C13.3526 19.0724 14.3822 18.4523 14.5659 17.4922C14.7685 16.434 13.908 15.5263 12.2505 15.02C11.7236 14.8591 10.399 14.3422 10.1542 14.2023C8.9995 13.5422 8.46172 12.6764 8.53839 11.6105C8.65568 10.1335 10.0608 9.02673 11.8441 9.01933C12.6905 9.01766 13.4843 9.20057 14.1916 9.49098C14.4518 9.59797 14.9366 9.85263 15.1095 9.97845C15.2303 10.0649 15.2211 10.1617 15.1733 10.2366C15.1029 10.3513 14.8934 10.6713 14.8089 10.8045C14.7473 10.8959 14.671 10.9064 14.5626 10.8395C13.6507 10.2426 12.7127 10.0401 11.8684 10.0237C10.6503 10.0472 9.7317 10.7526 9.67135 11.7199C9.65536 12.5936 10.3365 13.2274 11.7823 13.7114C14.7672 14.646 15.8982 15.7448 15.6839 17.4671ZM12.0004 2.28463C13.9325 2.28463 15.5075 4.07132 15.5812 6.30786H8.41958C8.4933 4.07132 10.0683 2.28463 12.0004 2.28463ZM21.5714 6.30786H16.9295C16.8155 3.35478 14.6523 1 12.0004 1C9.3485 1 7.18525 3.35478 7.07129 6.30786H2.42278C2.1897 6.31198 2.00203 6.49868 2.00203 6.72833C2.00203 6.73933 2.00249 6.75019 2.00334 6.761H2L2.66268 20.9943C2.66274 21.0339 2.66425 21.0739 2.66727 21.1141C2.66799 21.123 2.66871 21.1321 2.66949 21.1411L2.67093 21.1711L2.67251 21.1727C2.77316 22.1632 3.5108 22.9608 4.51396 22.9976L4.51619 22.9999H19.2619C19.2688 22.9999 19.2758 23 19.2828 23C19.2898 23 19.2968 22.9999 19.3037 22.9999H19.3352C20.3558 22.9727 21.183 22.1632 21.2704 21.1605L21.2715 21.1466C21.2723 21.1361 21.2731 21.1256 21.2738 21.115C21.2754 21.0898 21.2764 21.0646 21.2769 21.0396L21.9999 6.75007C22.0003 6.7428 22 6.7356 22 6.72833C22 6.49605 21.8081 6.30786 21.5714 6.30786Z" fill="#EE4D2D"/>
</svg>
