<svg width="24" height="24" viewBox="0 0 24 24" fill="none" xmlns="http://www.w3.org/2000/svg">
<path fill-rule="evenodd" clip-rule="evenodd" d="M13.7574 18.8187C13.241 19.0379 12.5488 19.1558 12 19.1186C11.1467 19.0863 10.3446 18.8798 9.60568 18.5031C9.33669 18.3658 8.94234 18.0949 8.64502 17.847C8.5773 17.7908 8.54246 17.7402 8.60759 17.6485C8.67709 17.5443 8.95196 17.1471 8.99527 17.0816C9.05371 16.9925 9.14967 16.9879 9.2377 17.0568C9.24982 17.0662 9.33919 17.1354 9.35719 17.1488C10.0686 17.7022 10.9862 18.1178 12.0057 18.1567C13.2917 18.1393 14.2246 17.5666 14.3911 16.6799C14.5747 15.7027 13.7949 14.8644 12.293 14.3969C11.8155 14.2482 10.6153 13.7708 10.3935 13.6416C9.34721 13.032 8.85992 12.2325 8.92933 11.2482C9.03563 9.88405 10.3089 8.86191 11.9248 8.85502C12.6917 8.85353 13.4109 9.02246 14.0518 9.29074C14.2876 9.38946 14.7269 9.62468 14.8836 9.74087C14.9931 9.8207 14.9846 9.91007 14.9415 9.97921C14.8776 10.0851 14.6877 10.3807 14.6112 10.5037C14.5554 10.5882 14.4863 10.5979 14.3881 10.5361C13.5617 9.98473 12.7118 9.7978 11.9468 9.78257C10.843 9.80431 10.0106 10.4558 9.95593 11.3491C9.9415 12.156 10.5587 12.7413 11.8687 13.1883C14.5735 14.0515 15.5982 15.0661 15.4041 16.6568C15.2842 17.6385 14.6851 18.425 13.7574 18.8187ZM5.42293 6.6968C5.11342 6.6968 4.83638 6.5048 4.72771 6.215L4.67992 6.08758C4.59249 5.85441 4.71063 5.59451 4.9438 5.50707C4.99442 5.48809 5.04805 5.47836 5.10211 5.47836H18.0623C18.2725 5.47836 18.4431 5.30783 18.4431 5.09755V3.72543C18.4431 3.23369 18.0215 2.84771 17.5316 2.89101L3.73939 4.109C2.75538 4.19427 2 5.01808 2 6.00574V19.2626C2 20.3141 2.85241 21.1665 3.90387 21.1665H20.0961C21.1476 21.1665 22 20.3141 22 19.2626V8.60076C22 7.54921 21.1476 6.6968 20.0961 6.6968H5.42293Z" fill="#EE4D2D"/>
</svg>
