<svg width="24" height="24" viewBox="0 0 24 24" fill="none" xmlns="http://www.w3.org/2000/svg">
<rect width="24" height="24" fill="white"/>
<path d="M12.4831 6.80426L21.3776 6.37551V5.40759C21.3776 4.3694 20.6348 3.62375 19.7171 3.74277L11.9124 4.758C12.2063 5.39181 12.4028 6.08011 12.4831 6.80426Z" fill="#EE4D2D"/>
<path d="M21.6199 7.66779H12.5218C12.4572 11.2943 9.48905 14.2253 5.84691 14.2253C5.69062 14.2253 5.53575 14.2181 5.38232 14.2081V19.7188C5.38232 20.8444 6.29429 21.755 7.41848 21.755H18.2459H18.841H21.6185C22.6567 21.755 23.4998 20.9132 23.4998 19.875V9.54913C23.4998 8.50951 22.6581 7.66779 21.6199 7.66779ZM20.7682 16.1324C19.9838 16.1324 19.3472 15.4957 19.3472 14.7114C19.3472 13.927 19.9838 13.2903 20.7682 13.2903C21.5525 13.2903 22.1892 13.927 22.1892 14.7114C22.1892 15.4957 21.5525 16.1324 20.7682 16.1324Z" fill="#EE4D2D"/>
<path d="M5.84706 2.20001C2.89463 2.20001 0.5 4.59329 0.5 7.54724C0.5 10.5012 2.89463 12.8945 5.84706 12.8945C8.80091 12.8945 11.1941 10.4998 11.1941 7.54724C11.1941 4.59329 8.80091 2.20001 5.84706 2.20001ZM9.05615 8.21976C8.96725 8.3144 8.84106 8.37176 8.71201 8.37176H5.88721C5.60473 8.37176 5.36956 8.13659 5.36956 7.85267V4.03261C5.36956 3.76302 5.59612 3.54363 5.86857 3.55797C6.12093 3.57087 6.31881 3.78453 6.31881 4.04265V7.41244H8.70197C8.96151 7.41244 9.17373 7.6132 9.18664 7.86557C9.19381 7.99893 9.14792 8.12512 9.05615 8.21976Z" fill="#EE4D2D"/>
</svg>
