<svg width="24" height="24" viewBox="0 0 24 24" fill="none" xmlns="http://www.w3.org/2000/svg">
<path fill-rule="evenodd" clip-rule="evenodd" d="M13.7574 18.8183C13.241 19.0375 12.5488 19.1554 12 19.1182C11.1467 19.0859 10.3446 18.8793 9.60568 18.5026C9.33669 18.3654 8.94234 18.0945 8.64502 17.8466C8.5773 17.7904 8.54246 17.7398 8.60759 17.6481C8.67709 17.5438 8.95196 17.1467 8.99527 17.0811C9.05371 16.992 9.14967 16.9875 9.2377 17.0564C9.24982 17.0657 9.33919 17.135 9.35719 17.1484C10.0686 17.7018 10.9862 18.1174 12.0057 18.1563C13.2917 18.1388 14.2246 17.5662 14.3911 16.6795C14.5747 15.7022 13.7949 14.864 12.293 14.3965C11.8155 14.2478 10.6153 13.7704 10.3935 13.6412C9.34721 13.0316 8.85992 12.2321 8.92933 11.2477C9.03563 9.88362 10.3089 8.86148 11.9248 8.8546C12.6917 8.8531 13.4109 9.02203 14.0518 9.29031C14.2876 9.38903 14.7269 9.62426 14.8836 9.74044C14.9931 9.82027 14.9846 9.90964 14.9415 9.97878C14.8776 10.0847 14.6877 10.3803 14.6112 10.5033C14.5554 10.5878 14.4863 10.5975 14.3881 10.5357C13.5617 9.98431 12.7118 9.79738 11.9468 9.78214C10.843 9.80388 10.0106 10.4554 9.95593 11.3487C9.9415 12.1556 10.5587 12.7409 11.8687 13.1879C14.5735 14.0511 15.5982 15.0657 15.4041 16.6564C15.2842 17.6381 14.6851 18.4246 13.7574 18.8183ZM5.42293 6.69637C5.11342 6.69637 4.83638 6.50438 4.72771 6.21458L4.67992 6.08715C4.59249 5.85398 4.71063 5.59408 4.9438 5.50664C4.99442 5.48766 5.04805 5.47794 5.10211 5.47794H18.0623C18.2725 5.47794 18.4431 5.3074 18.4431 5.09713V3.725C18.4431 3.23326 18.0215 2.84728 17.5316 2.89059L3.73939 4.10857C2.75538 4.19384 2 5.01765 2 6.00531V19.2622C2 20.3137 2.85241 21.1661 3.90387 21.1661H20.0961C21.1476 21.1661 22 20.3137 22 19.2622V8.60033C22 7.54878 21.1476 6.69637 20.0961 6.69637H5.42293Z" fill="#EE4D2D"/>
</svg>
