<svg width="24" height="24" viewBox="0 0 24 24" fill="none" xmlns="http://www.w3.org/2000/svg">
<path d="M11 9C11 9.55228 10.5523 10 10 10C9.44772 10 9 9.55228 9 9C9 8.44772 9.44772 8 10 8C10.5523 8 11 8.44772 11 9Z" fill="#EE4D2D"/>
<path d="M14 16C14.5523 16 15 15.5523 15 15C15 14.4477 14.5523 14 14 14C13.4477 14 13 14.4477 13 15C13 15.5523 13.4477 16 14 16Z" fill="#EE4D2D"/>
<path fill-rule="evenodd" clip-rule="evenodd" d="M4 4C2.89543 4 2 4.89543 2 6V10.5H3C3.82843 10.5 4.5 11.1716 4.5 12C4.5 12.8284 3.82843 13.5 3 13.5H2V18C2 19.1046 2.89543 20 4 20H20C21.1046 20 22 19.1046 22 18V13.5H20.5C19.6716 13.5 19 12.8284 19 12C19 11.1716 19.6716 10.5 20.5 10.5H22V6C22 4.89543 21.1046 4 20 4H4ZM12 9C12 10.1046 11.1046 11 10 11C8.89543 11 8 10.1046 8 9C8 7.89543 8.89543 7 10 7C11.1046 7 12 7.89543 12 9ZM14 17C15.1046 17 16 16.1046 16 15C16 13.8954 15.1046 13 14 13C12.8954 13 12 13.8954 12 15C12 16.1046 12.8954 17 14 17ZM15.1053 7.19303L8.10532 16.193L8.89468 16.807L15.8947 7.80697L15.1053 7.19303Z" fill="#EE4D2D"/>
</svg>
