<svg xmlns="http://www.w3.org/2000/svg" width="16" height="16" fill="none"><rect width="16" height="16" fill="#fff" rx="2"/><path fill="#EE4D2D" stroke="#EE4D2D" stroke-width=".5" d="M14.044 11.337H9.778v-.67h4.266v.67Zm0 1.73H9.778V12.4h4.266v.666Zm0-8.16H9.778v-.64h4.266v.64Z"/><path fill="#EE4D2D" stroke="#EE4D2D" stroke-width=".2" d="m2.133 13.294 1.565-1.563-1.555-1.559.564-.572 1.56 1.559L5.827 9.6l.563.572-1.555 1.56L6.4 13.294l-.564.572-1.57-1.568-1.569 1.568-.564-.573ZM3.68 7.412V5.2l-2.202-.002-.006-.804h2.206V2.187l.804.006.002 2.202h2.212l.006.803H4.484l-.001 2.219-.804-.006Z"/></svg>