<svg width="16" height="16" viewBox="0 0 16 16" fill="none" xmlns="http://www.w3.org/2000/svg">
<path d="M12.6538 13.3315V10.3334H13.6352V13.4991C13.6352 14.1383 13.117 14.6667 12.4778 14.6667H2.4907C1.85149 14.6667 1.33331 14.1383 1.33331 13.4991V2.501C1.33331 1.86181 1.8515 1.33337 2.4907 1.33337H9.27568V2.33529H2.64808C2.46398 2.33529 2.31474 2.48453 2.31474 2.66862V13.3315C2.31474 13.5156 2.46398 13.6648 2.64808 13.6648H12.3204C12.5045 13.6648 12.6538 13.5156 12.6538 13.3315Z" fill="black" fill-opacity="0.65"/>
<path d="M13.7041 2.47145C13.4438 2.2111 13.0217 2.2111 12.7613 2.47145L5.30433 9.92844C5.24781 9.98496 5.20191 10.0512 5.16883 10.124L4.40816 11.7974C4.28071 12.0778 4.56916 12.3663 4.84955 12.2388L6.52301 11.4782C6.59579 11.4451 6.66202 11.3992 6.71855 11.3426L14.1755 3.88566C14.4359 3.62531 14.4359 3.2032 14.1755 2.94285L13.7041 2.47145Z" fill="black" fill-opacity="0.65"/>
</svg>
