<svg width="40" height="40" viewBox="0 0 40 40" fill="none" xmlns="http://www.w3.org/2000/svg">
<path d="M18.7985 9.36226C18.7985 8.40968 18.0224 7.62615 17.0771 7.74378C10.2688 8.59104 5 14.3982 5 21.4359C5 29.0566 11.1778 35.2344 18.7985 35.2344C25.8361 35.2344 31.6433 29.9656 32.4906 23.1573C32.6082 22.212 31.8247 21.4359 30.8721 21.4359H19.1434C18.9529 21.4359 18.7985 21.2815 18.7985 21.0909V9.36226Z" fill="url(#paint0_linear_13785_15802)" stroke="url(#paint1_linear_13785_15802)" stroke-width="0.2"/>
<g filter="url(#filter0_di_13785_15802)">
<path d="M32.6667 18.5C33.7713 18.5 34.6819 17.5998 34.5188 16.5073C34.3565 15.42 34.0617 14.3541 33.6391 13.3338C32.9606 11.6959 31.9662 10.2076 30.7126 8.95406C29.459 7.70047 27.9708 6.70606 26.3329 6.02763C25.3126 5.60501 24.2467 5.31015 23.1594 5.14788C22.0669 4.98483 21.1667 5.89543 21.1667 7L21.1667 16.5C21.1667 17.6046 22.0621 18.5 23.1667 18.5H32.6667Z" fill="url(#paint2_linear_13785_15802)"/>
</g>
<path fill-rule="evenodd" clip-rule="evenodd" d="M27.6601 11.3484H28.5395C28.5395 11.3484 28.5563 11.5299 28.5646 11.6163C28.7238 11.4867 28.908 11.3743 29.1007 11.3397C29.7958 11.2101 30.3402 11.4348 30.6753 11.988C31.0689 12.6362 31.1108 13.3104 30.7674 14.0019C30.4072 14.7106 29.4273 15.2033 28.5814 14.5551V16H27.6601V11.3484ZM29.4023 13.9153C29.8211 13.9153 30.131 13.5696 30.1226 13.1115C30.1226 12.6102 29.796 12.2471 29.3688 12.2558C28.9082 12.2644 28.5983 12.6188 28.6067 13.1288C28.615 13.5955 28.9417 13.9153 29.4023 13.9153Z" fill="white"/>
<path fill-rule="evenodd" clip-rule="evenodd" d="M27.1241 14.3217C26.8644 14.3217 26.6215 14.3217 26.3703 14.313C26.32 14.313 26.2698 14.2439 26.2363 14.192C25.985 13.8377 25.5997 13.2931 25.3652 12.9301H24.8208V14.3044H24V10C24.0594 10 24.4182 10.0026 24.7441 10.0049C25.0153 10.0069 25.264 10.0086 25.2982 10.0086C25.5662 10.0086 25.8342 10.0173 26.0939 10.0605C26.722 10.1729 27.1576 10.6655 27.2246 11.2533C27.2999 11.9707 27.0236 12.4634 26.3954 12.7659C26.3912 12.7702 26.3849 12.7724 26.3786 12.7745C26.3724 12.7767 26.3661 12.7788 26.3619 12.7832C26.3549 12.7867 26.3466 12.7903 26.3368 12.7945C26.3229 12.8005 26.3061 12.8076 26.2865 12.8177C26.4038 12.982 26.6215 13.2931 26.6215 13.2931C26.6519 13.3379 26.7453 13.4686 26.8398 13.6009C26.9276 13.7238 27.0168 13.8486 27.0571 13.9068C27.0814 13.9411 27.1058 13.9761 27.1305 14.0114C27.1991 14.1097 27.2702 14.2114 27.3502 14.313C27.3125 14.313 27.2748 14.3152 27.2372 14.3174C27.1995 14.3195 27.1617 14.3217 27.1241 14.3217ZM24.8377 10.8561L25.8846 10.8734C26.2531 10.908 26.4374 11.1154 26.4374 11.4611C26.4374 11.7982 26.2364 12.023 25.8762 12.0489L24.8377 12.0402V11.5821C24.8377 11.5821 24.8461 10.9771 24.8377 10.8561Z" fill="white"/>
<defs>
<filter id="filter0_di_13785_15802" x="19.1667" y="3.12891" width="16.3711" height="16.3711" filterUnits="userSpaceOnUse" color-interpolation-filters="sRGB">
<feFlood flood-opacity="0" result="BackgroundImageFix"/>
<feColorMatrix in="SourceAlpha" type="matrix" values="0 0 0 0 0 0 0 0 0 0 0 0 0 0 0 0 0 0 127 0" result="hardAlpha"/>
<feOffset dx="-1" dy="-1"/>
<feGaussianBlur stdDeviation="0.5"/>
<feComposite in2="hardAlpha" operator="out"/>
<feColorMatrix type="matrix" values="0 0 0 0 1 0 0 0 0 0.25098 0 0 0 0 0.0784314 0 0 0 0.3 0"/>
<feBlend mode="normal" in2="BackgroundImageFix" result="effect1_dropShadow_13785_15802"/>
<feBlend mode="normal" in="SourceGraphic" in2="effect1_dropShadow_13785_15802" result="shape"/>
<feColorMatrix in="SourceAlpha" type="matrix" values="0 0 0 0 0 0 0 0 0 0 0 0 0 0 0 0 0 0 127 0" result="hardAlpha"/>
<feOffset dx="1" dy="1"/>
<feGaussianBlur stdDeviation="0.5"/>
<feComposite in2="hardAlpha" operator="arithmetic" k2="-1" k3="1"/>
<feColorMatrix type="matrix" values="0 0 0 0 1 0 0 0 0 1 0 0 0 0 1 0 0 0 0.25 0"/>
<feBlend mode="normal" in2="shape" result="effect2_innerShadow_13785_15802"/>
</filter>
<linearGradient id="paint0_linear_13785_15802" x1="23.7565" y1="33.0274" x2="8.71111" y2="7.771" gradientUnits="userSpaceOnUse">
<stop stop-color="#FF8957"/>
<stop offset="1" stop-color="#FF2A00"/>
</linearGradient>
<linearGradient id="paint1_linear_13785_15802" x1="14.7119" y1="10.5599" x2="23.2548" y2="24.0494" gradientUnits="userSpaceOnUse">
<stop stop-color="#FCFCFC"/>
<stop offset="1" stop-color="#FF3000"/>
</linearGradient>
<linearGradient id="paint2_linear_13785_15802" x1="32.7276" y1="34.8816" x2="19.6476" y2="-0.210935" gradientUnits="userSpaceOnUse">
<stop offset="0.0138596" stop-color="#FF7847"/>
<stop offset="1" stop-color="#FF441B"/>
</linearGradient>
</defs>
</svg>
