<svg xmlns="http://www.w3.org/2000/svg" width="40" height="40" fill="none"><path fill="url(#a)" stroke="url(#b)" stroke-width=".2" d="M27.311 11.64a8.62 8.62 0 0 1-2.959 6.51c1.089.347 2.128.812 3.102 1.38.42.245.232.9-.247.986-4.027.72-7.171 4.306-7.171 8.521 0 1.415.34 2.751.942 3.93.18.354-.063.8-.46.8H6.675c-1.593 0-2.91-1.302-2.64-2.872.956-5.561 4.642-10.151 9.58-12.247A8.64 8.64 0 1 1 27.31 11.64Z"/><g filter="url(#c)"><path fill="url(#d)" d="M36 28.96a7.21 7.21 0 1 1-14.422 0 7.21 7.21 0 0 1 14.422 0Z"/><path stroke="url(#e)" stroke-width=".2" d="M28.79 36.27a7.31 7.31 0 1 0 0-14.622 7.31 7.31 0 0 0 0 14.622Z"/></g><path stroke="#fff" stroke-linecap="round" stroke-linejoin="round" stroke-width="2" d="m25.038 29.068 3.106 2.582 4.97-5.81"/><defs><linearGradient id="a" x1="20.891" x2="2.586" y1="31.298" y2="6.563" gradientUnits="userSpaceOnUse"><stop stop-color="#FF8957"/><stop offset="1" stop-color="#FF2A00"/></linearGradient><linearGradient id="b" x1="12.746" x2="23.02" y1="6.163" y2="19.223" gradientUnits="userSpaceOnUse"><stop stop-color="#FCFCFC"/><stop offset="1" stop-color="#FF3000"/></linearGradient><linearGradient id="d" x1="21.578" x2="35.221" y1="21.748" y2="37.34" gradientUnits="userSpaceOnUse"><stop stop-color="#FF2A00"/><stop offset="1" stop-color="#FF8957"/></linearGradient><linearGradient id="e" x1="23.501" x2="33.116" y1="24.152" y2="35.209" gradientUnits="userSpaceOnUse"><stop stop-color="#EE4D2D"/><stop offset="1" stop-color="#FF3508"/></linearGradient><filter id="c" width="19.822" height="18.822" x="17.378" y="19.048" color-interpolation-filters="sRGB" filterUnits="userSpaceOnUse"><feFlood flood-opacity="0" result="BackgroundImageFix"/><feColorMatrix in="SourceAlpha" result="hardAlpha" values="0 0 0 0 0 0 0 0 0 0 0 0 0 0 0 0 0 0 127 0"/><feOffset dx="-2" dy="-.5"/><feGaussianBlur stdDeviation="1"/><feComposite in2="hardAlpha" operator="out"/><feColorMatrix values="0 0 0 0 1 0 0 0 0 0.25098 0 0 0 0 0.0784314 0 0 0 0.5 0"/><feBlend in2="BackgroundImageFix" result="effect1_dropShadow_6083_27766"/><feBlend in="SourceGraphic" in2="effect1_dropShadow_6083_27766" result="shape"/><feColorMatrix in="SourceAlpha" result="hardAlpha" values="0 0 0 0 0 0 0 0 0 0 0 0 0 0 0 0 0 0 127 0"/><feOffset dx="1" dy="1"/><feGaussianBlur stdDeviation=".5"/><feComposite in2="hardAlpha" k2="-1" k3="1" operator="arithmetic"/><feColorMatrix values="0 0 0 0 1 0 0 0 0 1 0 0 0 0 1 0 0 0 0.25 0"/><feBlend in2="shape" result="effect2_innerShadow_6083_27766"/></filter></defs></svg>