<svg width="24" height="24" viewBox="0 0 24 24" fill="none" xmlns="http://www.w3.org/2000/svg">
<rect width="24" height="24" fill="white"/>
<path d="M2 7.35776V5C2 4.44772 2.44772 4 3 4H20.2868C20.8391 4 21.2868 4.44772 21.2868 5V7.35776M2 7.35776H21.2868M2 7.35776V16.431C2 16.9833 2.44772 17.431 3 17.431H9.43919M21.2868 7.35776V8.75683M4.47973 14.9127H5.30631M7.51051 14.9127H8.33709" stroke="#EE4D2D" stroke-width="1.4" stroke-linecap="square"/>
<path d="M22 14.4476V12.593C22 12.2137 21.7651 11.874 21.4103 11.7402L17.1359 10.1281C17.0222 10.0852 16.8968 10.0852 16.783 10.1281L12.5087 11.7402C12.1538 11.874 11.9189 12.2137 11.9189 12.593V14.4476C11.9189 17.5412 13.9128 20.2823 16.8561 21.235C16.9233 21.2567 16.9957 21.2567 17.0629 21.235C20.0062 20.2823 22 17.5412 22 14.4476Z" stroke="#EE4D2D" stroke-width="1.2"/>
<path fill-rule="evenodd" clip-rule="evenodd" d="M17.5444 12.7669C17.6177 12.444 17.3029 12.223 17.1445 12.4862L15.28 15.5818C15.1591 15.7826 15.2663 16.0806 15.4595 16.0806H17.0375L16.4839 18.1105C16.3957 18.4341 16.7129 18.6761 16.8776 18.4109L18.7759 15.3559C18.9002 15.1559 18.7935 14.8535 18.5986 14.8535H17.071L17.5444 12.7669Z" fill="#EE4D2D"/>
</svg>
