<svg width="20" height="20" viewBox="0 0 20 20" fill="none" xmlns="http://www.w3.org/2000/svg">
<path fill-rule="evenodd" clip-rule="evenodd" d="M10 20C15.5228 20 20 15.5228 20 10C20 4.47715 15.5228 0 10 0C4.47715 0 0 4.47715 0 10C0 15.5228 4.47715 20 10 20Z" fill="#F69113"/>
<path d="M10.2502 4.25C10.2502 4.25 9.91446 4.25 9.50024 4.25C9.08603 4.25 8.75024 4.25 8.75024 4.25V10.5C8.75024 10.9142 9.08603 11.25 9.50024 11.25H15.7502C15.7502 11.25 15.7502 10.9142 15.7502 10.5C15.7502 10.0858 15.7502 9.75 15.7502 9.75H10.2502V4.25Z" fill="white"/>
</svg>
