<svg xmlns="http://www.w3.org/2000/svg" width="40" height="40" fill="none"><mask id="b" width="31" height="34" x="4" y="3" fill="#000" maskUnits="userSpaceOnUse"><path fill="#fff" d="M4 3h31v34H4z"/><path fill-rule="evenodd" d="M26.238 6a2 2 0 0 0-2-2H7a2 2 0 0 0-2 2v23.01a2 2 0 0 0 2 2h3.93v3a2 2 0 0 0 2 2h19.24a2 2 0 0 0 2-2V10a2 2 0 0 0-2-2h-5.93V6Z" clip-rule="evenodd"/></mask><path fill="url(#a)" d="M10.93 31.01h.2v-.2h-.2v.2ZM26.239 8h-.2v.2h.2V8Zm-2-3.8a1.8 1.8 0 0 1 1.8 1.8h.4a2.2 2.2 0 0 0-2.2-2.2v.4ZM7 4.2h17.238v-.4H7v.4ZM5.2 6A1.8 1.8 0 0 1 7 4.2v-.4A2.2 2.2 0 0 0 4.8 6h.4Zm0 23.01V6h-.4v23.01h.4Zm1.8 1.8a1.8 1.8 0 0 1-1.8-1.8h-.4a2.2 2.2 0 0 0 2.2 2.2v-.4Zm3.93 0H7v.4h3.93v-.4Zm.2 3.2v-3h-.4v3h.4Zm1.8 1.8a1.8 1.8 0 0 1-1.8-1.8h-.4a2.2 2.2 0 0 0 2.2 2.2v-.4Zm19.239 0H12.93v.4h19.238v-.4Zm1.8-1.8a1.8 1.8 0 0 1-1.8 1.8v.4a2.2 2.2 0 0 0 2.2-2.2h-.4Zm0-24.01v24.01h.4V10h-.4Zm-1.8-1.8a1.8 1.8 0 0 1 1.8 1.8h.4a2.2 2.2 0 0 0-2.2-2.2v.4Zm-5.93 0h5.93v-.4h-5.93v.4Zm-.2-2.2v2h.4V6h-.4Z" mask="url(#b)"/><path fill="url(#c)" d="M24.238 4a2 2 0 0 1 2 2v23.01a2 2 0 0 1-2 2H7a2 2 0 0 1-2-2V6a2 2 0 0 1 2-2h17.238Z"/><g filter="url(#d)"><path fill="url(#e)" d="M32.169 8a2 2 0 0 1 2 2v24.01a2 2 0 0 1-2 2H12.93a2 2 0 0 1-2-2V10a2 2 0 0 1 2-2h19.238Z"/></g><path fill="#FEF6F5" fill-rule="evenodd" d="M15.284 23.302a1 1 0 0 1 1.414-.018l3.677 3.59 2.371-2.299a1 1 0 0 1 1.395.003l6.251 6.102v-1.506a1 1 0 1 1 2 0v3.88a1 1 0 0 1-1 1h-4.074a1 1 0 1 1 0-2h1.618l-5.496-5.366-2.372 2.299a1 1 0 0 1-1.394-.003l-4.372-4.268a1 1 0 0 1-.018-1.415Z" clip-rule="evenodd"/><path fill="#FEF6F5" d="M15 14a1 1 0 0 1 1-1h13a1 1 0 1 1 0 2H16a1 1 0 0 1-1-1Zm0 5a1 1 0 0 1 1-1h6a1 1 0 1 1 0 2h-6a1 1 0 0 1-1-1Z"/><defs><linearGradient id="a" x1="11" x2="31.246" y1="4.941" y2="35.742" gradientUnits="userSpaceOnUse"><stop stop-color="#fff"/><stop offset="1" stop-color="#F32D00"/></linearGradient><linearGradient id="c" x1="15.903" x2="10" y1="34.833" y2="2" gradientUnits="userSpaceOnUse"><stop stop-color="#FF4100"/><stop offset="1" stop-color="#FF8A62"/></linearGradient><linearGradient id="e" x1="32.5" x2="17" y1="39" y2="4.5" gradientUnits="userSpaceOnUse"><stop offset=".014" stop-color="#FF7847"/><stop offset="1" stop-color="#FF441B"/></linearGradient><filter id="d" width="26.238" height="31.011" x="8.931" y="6" color-interpolation-filters="sRGB" filterUnits="userSpaceOnUse"><feFlood flood-opacity="0" result="BackgroundImageFix"/><feColorMatrix in="SourceAlpha" result="hardAlpha" values="0 0 0 0 0 0 0 0 0 0 0 0 0 0 0 0 0 0 127 0"/><feOffset dx="-1" dy="-1"/><feGaussianBlur stdDeviation=".5"/><feComposite in2="hardAlpha" operator="out"/><feColorMatrix values="0 0 0 0 1 0 0 0 0 0.25098 0 0 0 0 0.0784314 0 0 0 0.3 0"/><feBlend in2="BackgroundImageFix" result="effect1_dropShadow_6083_27770"/><feBlend in="SourceGraphic" in2="effect1_dropShadow_6083_27770" result="shape"/><feColorMatrix in="SourceAlpha" result="hardAlpha" values="0 0 0 0 0 0 0 0 0 0 0 0 0 0 0 0 0 0 127 0"/><feOffset dx="1" dy="1"/><feGaussianBlur stdDeviation=".5"/><feComposite in2="hardAlpha" k2="-1" k3="1" operator="arithmetic"/><feColorMatrix values="0 0 0 0 1 0 0 0 0 1 0 0 0 0 1 0 0 0 0.25 0"/><feBlend in2="shape" result="effect2_innerShadow_6083_27770"/></filter></defs></svg>