<svg width="19" height="19" viewBox="0 0 19 19" fill="none" xmlns="http://www.w3.org/2000/svg">
<rect width="18.4" height="18.4" rx="4" fill="#F5F5F5"/>
<path d="M3.35001 3.79998C3.35001 3.55145 3.55148 3.34998 3.80001 3.34998H6.80001V4.24998H4.25001V6.79998H3.35001V3.79998Z" fill="black" fill-opacity="0.65"/>
<path d="M15.05 3.79998C15.05 3.55145 14.8485 3.34998 14.6 3.34998H11.6V4.24998H14.15V6.79998H15.05V3.79998Z" fill="black" fill-opacity="0.65"/>
<path d="M3.35001 14.6C3.35001 14.8485 3.55148 15.05 3.80001 15.05H6.80001V14.15H4.25001L4.25001 11.6H3.35001L3.35001 14.6Z" fill="black" fill-opacity="0.65"/>
<path d="M14.6 15.05C14.8485 15.05 15.05 14.8485 15.05 14.6V11.6H14.15V14.15H11.6V15.05H14.6Z" fill="black" fill-opacity="0.65"/>
<path d="M3.20001 9.64998H15.2V8.74998H3.20001V9.64998Z" fill="black" fill-opacity="0.65"/>
</svg>
