<svg width="54" height="54" viewBox="0 0 54 54" fill="none" xmlns="http://www.w3.org/2000/svg">
<circle cx="27" cy="27" r="27" fill="url(#paint0_linear_10223_26452)"/>
<path fill-rule="evenodd" clip-rule="evenodd" d="M37 16C37 14.8954 36.1046 14 35 14H17C15.8954 14 15 14.8954 15 16V37C15 38.1046 15.8954 39 17 39H27.7517C27.2688 37.9326 27 36.7477 27 35.5C27 30.8056 30.8056 27 35.5 27C36.0118 27 36.5131 27.0452 37 27.1319V16Z" fill="url(#paint1_linear_10223_26452)"/>
<path d="M18.3672 19.7585C18.3672 19.2409 18.7868 18.8213 19.3044 18.8213H31.4876C32.0052 18.8213 32.4248 19.2409 32.4248 19.7585C32.4248 20.2761 32.0052 20.6956 31.4876 20.6956H19.3044C18.7868 20.6956 18.3672 20.2761 18.3672 19.7585Z" fill="#FEF6F5"/>
<path d="M18.3672 28.8356C18.3672 28.318 18.7868 27.8984 19.3044 27.8984H24.9274C25.445 27.8984 25.8646 28.318 25.8646 28.8356C25.8646 29.3532 25.445 29.7728 24.9274 29.7728H19.3044C18.7868 29.7728 18.3672 29.3532 18.3672 28.8356Z" fill="#FEF6F5"/>
<path d="M18.3672 24.2966C18.3672 23.779 18.7868 23.3594 19.3044 23.3594H26.5068C27.0244 23.3594 27.444 23.779 27.444 24.2966C27.444 24.8141 27.0244 25.2337 26.5068 25.2337H19.3044C18.7868 25.2337 18.3672 24.8141 18.3672 24.2966Z" fill="#FEF6F5"/>
<path d="M42 35.5C42 39.0899 39.0898 42 35.5 42C31.9101 42 29 39.0899 29 35.5C29 31.9101 31.9101 29 35.5 29C39.0898 29 42 31.9101 42 35.5Z" fill="url(#paint2_linear_10223_26452)"/>
<path d="M35.5 34L35.5 38" stroke="white" stroke-width="1.7" stroke-linecap="round"/>
<path d="M35.5 33L33.5 35" stroke="white" stroke-width="1.7" stroke-linecap="round"/>
<path d="M35.5 33L37.5 35" stroke="white" stroke-width="1.7" stroke-linecap="round"/>
<defs>
<linearGradient id="paint0_linear_10223_26452" x1="36.8279" y1="49.6668" x2="7.28666" y2="0.0764622" gradientUnits="userSpaceOnUse">
<stop stop-color="#FF8957" stop-opacity="0"/>
<stop offset="1" stop-color="#FF2A00" stop-opacity="0.12"/>
</linearGradient>
<linearGradient id="paint1_linear_10223_26452" x1="41.7912" y1="46.8015" x2="27.265" y2="14.469" gradientUnits="userSpaceOnUse">
<stop offset="0.0138596" stop-color="#FF7847"/>
<stop offset="1" stop-color="#FF441B"/>
</linearGradient>
<linearGradient id="paint2_linear_10223_26452" x1="32.9039" y1="36.0283" x2="39.0498" y2="29.0629" gradientUnits="userSpaceOnUse">
<stop stop-color="#2187FF"/>
<stop offset="1" stop-color="#73C4FF"/>
</linearGradient>
</defs>
</svg>
