<svg width="20" height="20" viewBox="0 0 20 20" fill="none" xmlns="http://www.w3.org/2000/svg">
<path d="M16.3419 0.539681H16.3315V0.537598H4.64401C3.95651 0.589681 3.40443 1.13135 3.33984 1.81676V17.6876H2.84401C2.62734 17.6418 2.45859 17.4668 2.42109 17.2459V6.04801C2.77109 5.94176 3.02734 5.61676 3.02734 5.23135C3.02734 4.76051 2.64609 4.37718 2.17318 4.37718H2.04609C1.30443 4.42301 0.716927 5.03968 0.716927 5.79176V5.80218H0.714844V18.0668C0.75651 18.7584 1.29401 19.3147 1.97526 19.3897H16.4982C17.1711 19.3168 17.7003 18.773 17.7544 18.0959V1.8501C17.7003 1.11676 17.0878 0.539681 16.3419 0.539681Z" fill="#FFA222"/>
<path d="M6.25391 11.0209C6.25391 11.4918 6.63516 11.8751 7.10807 11.8751H14.2727C14.7435 11.8751 15.1268 11.4939 15.1268 11.0209C15.1268 10.5501 14.7456 10.1668 14.2727 10.1668H7.10599C6.63516 10.1689 6.25391 10.5501 6.25391 11.0209ZM6.25391 14.2459C6.25391 14.7168 6.63516 15.1001 7.10807 15.1001H14.2727C14.7435 15.1001 15.1268 14.7189 15.1268 14.2459C15.1268 13.7751 14.7456 13.3918 14.2727 13.3918H7.10599C6.63516 13.3939 6.25391 13.7751 6.25391 14.2459ZM15.1247 4.98761C15.0664 4.28553 14.4956 3.7272 13.7872 3.6897H7.55599C6.82682 3.75011 6.25599 4.35845 6.25599 5.1022V5.11261H6.25391V7.29178C6.29766 8.00636 6.86849 8.57511 7.58307 8.61886H13.8352C14.5581 8.55428 15.1247 7.94595 15.1247 7.20636V7.19595H15.1268V4.98761H15.1247ZM12.9289 6.9147H8.42474C8.18932 6.88136 7.99974 6.69803 7.96016 6.4647V5.90428C7.97891 5.63345 8.19349 5.41678 8.46432 5.39803H12.906C13.1727 5.41053 13.3893 5.61678 13.4206 5.87928V6.4272C13.3935 6.68345 13.1872 6.88761 12.9289 6.9147Z" fill="white"/>
</svg>
