<svg viewBox="0 0 24 24" xmlns="http://www.w3.org/2000/svg">
    <path d="M12 3C7.46 3 3.34 4.78 0.29 7.67C0.11 7.85 0 8.1 0 8.38C0 8.66 0.11 8.91 0.29 9.09L1.77 10.57C1.95 10.75 2.2 10.86 2.48 10.86C2.75 10.86 3 10.75 3.18 10.57C5.66 8.09 8.69 6.75 12 6.75C15.31 6.75 18.34 8.09 20.82 10.57C21 10.75 21.25 10.86 21.52 10.86C21.8 10.86 22.05 10.75 22.23 10.57L23.71 9.09C23.89 8.91 24 8.66 24 8.38C24 8.1 23.89 7.85 23.71 7.67C20.66 4.78 16.54 3 12 3ZM12 10.5C9.27 10.5 6.94 11.53 5.17 13.29C4.99 13.47 4.88 13.72 4.88 14C4.88 14.28 4.99 14.53 5.17 14.71L6.66 16.2C6.84 16.38 7.09 16.5 7.37 16.5C7.65 16.5 7.9 16.39 8.08 16.21C9.25 15.05 10.59 14.4 12 14.4C13.41 14.4 14.75 15.05 15.92 16.21C16.1 16.39 16.35 16.5 16.63 16.5C16.91 16.5 17.16 16.38 17.34 16.2L18.83 14.71C19.01 14.53 19.12 14.28 19.12 14C19.12 13.72 19.01 13.47 18.83 13.29C17.06 11.53 14.73 10.5 12 10.5ZM12 18C10.9 18 10 18.9 10 20C10 21.1 10.9 22 12 22C13.1 22 14 21.1 14 20C14 18.9 13.1 18 12 18Z" fill="#e0e0e0"/>
</svg> 